<svg width="17" height="10" viewBox="0 0 17 10" fill="none" xmlns="http://www.w3.org/2000/svg">
<path opacity="0.7" fill-rule="evenodd" clip-rule="evenodd" d="M0.543547 0.0668768C0.117957 0.24485 -0.0982191 0.737126 0.0431358 1.20647C0.0982324 1.38941 0.271445 1.58073 4.03369 5.61444C6.89815 8.68564 8.00625 9.85182 8.11243 9.90706C8.31465 10.0123 8.53458 10.0285 8.75035 9.95396C8.91999 9.89538 9.10613 9.70207 12.8654 5.68065C15.9184 2.4149 16.8181 1.43283 16.8708 1.30896C16.9081 1.22109 16.9525 1.12147 16.9695 1.08757C17.0116 1.00322 17.0095 0.695055 16.9671 0.723173C16.9488 0.735244 16.9339 0.719587 16.9339 0.688345C16.9339 0.585069 16.8081 0.365203 16.6756 0.237039C16.4271 -0.0034179 16.059 -0.0626711 15.7488 0.0878588C15.666 0.128012 14.4301 1.4253 12.0525 3.96777L8.48047 7.78736L4.8919 3.94895C1.60006 0.427935 1.2898 0.105787 1.13996 0.0529599C0.927731 -0.0218435 0.745568 -0.0175833 0.543547 0.0668768ZM0.00381903 0.918436C0.00381903 1.02583 0.0100182 1.06975 0.0176097 1.01607C0.0252013 0.962388 0.0252013 0.874484 0.0176097 0.820804C0.0100182 0.767125 0.00381903 0.811041 0.00381903 0.918436Z" fill="#FCFCFC"/>
</svg>
