<svg width="39" height="29" viewBox="0 0 39 29" fill="none" xmlns="http://www.w3.org/2000/svg">
<g opacity="0.1">
<path d="M31.0579 28.0232C32.3475 27.8588 33.6055 27.3847 34.6928 26.6577C35.287 26.2594 36.4059 25.1405 36.7979 24.5526C37.7524 23.1049 38.1886 21.6889 38.1886 20.0073C38.195 18.6103 37.9737 17.6367 37.3668 16.3851C36.3743 14.3432 34.3514 12.6869 32.1768 12.1369C31.8544 12.0548 31.8481 12.0421 32.0693 10.9674C32.3727 9.4629 32.8279 8.16065 33.5865 6.60553C34.5916 4.55101 35.7485 2.98957 37.6576 1.09308C38.1633 0.593677 38.549 0.163807 38.5363 0.113234C38.4731 -0.0764139 38.0432 -0.00687619 36.918 0.366099C33.5612 1.49767 30.9188 3.09071 28.27 5.56879C24.3443 9.24796 21.8915 13.376 21.3162 17.2891C21.1772 18.231 21.2214 20.0706 21.4048 20.8924C21.6639 22.0366 22.2898 23.4147 23.0104 24.4325C23.4719 25.0836 24.5023 26.0824 25.1471 26.5186C26.2281 27.2456 27.5683 27.7766 28.7884 27.9663C29.37 28.0548 30.5648 28.0864 31.0579 28.0232Z" fill="white"/>
<path d="M10.1962 27.9731C11.4226 27.7582 12.4024 27.3663 13.4076 26.7025C15.1207 25.5583 16.2839 23.8767 16.8212 21.7463C16.9414 21.2849 16.9603 21.032 16.9603 19.9763C16.9603 18.8953 16.9414 18.6677 16.8086 18.143C16.4167 16.5753 15.7339 15.3552 14.5897 14.2236C13.6415 13.2817 12.5984 12.6432 11.3594 12.2576C10.999 12.1438 10.6893 12.0427 10.683 12.0363C10.6261 11.9984 11.0117 10.26 11.2393 9.49506C11.8272 7.55433 12.5794 5.98657 13.7553 4.26709C14.5012 3.17345 15.165 2.38957 16.2776 1.28329C17.3839 0.189648 17.4977 0 17.0804 0C16.8276 0 15.4052 0.448834 14.3368 0.866061C10.7462 2.2821 7.25664 4.92454 4.43088 8.37613C1.01721 12.5547 -0.499979 16.8661 0.144825 20.5579C0.448262 22.3026 1.44076 24.2118 2.69876 25.4698C3.90619 26.6709 5.39809 27.4927 7.12389 27.8846C7.85087 28.0553 9.48185 28.0996 10.1962 27.9731Z" fill="white"/>
</g>
</svg>
