<svg width="23" height="21" viewBox="0 0 23 21" fill="none" xmlns="http://www.w3.org/2000/svg">
<path fill-rule="evenodd" clip-rule="evenodd" d="M22.071 0.0641984C21.9867 0.100964 21.5982 0.309523 21.2077 0.52773C16.9544 2.90434 13.249 6.01652 10.8726 9.20833C10.1499 10.1791 9.53963 11.1481 9.09737 12.0273L8.93193 12.3561L8.72261 12.1163C8.60749 11.9843 7.86202 11.1241 7.06602 10.2045C6.22194 9.22935 5.55208 8.49917 5.45874 8.45245C5.22317 8.33453 0.487717 8.33144 0.260319 8.44905C-0.0614818 8.61546 -0.0879896 8.9758 0.197858 9.29689C0.677741 9.83588 9.74204 19.6447 9.93501 19.8339C10.2018 20.0954 10.3508 20.1393 10.5886 20.0265C10.7967 19.9277 10.8404 19.8286 11.0811 18.9095C11.3032 18.0615 11.74 16.731 12.129 15.7177C13.686 11.6624 16.1537 7.63964 19.1739 4.23369C19.8088 3.51768 21.2015 2.11744 21.8428 1.55036C22.7527 0.745683 22.7574 0.74035 22.7574 0.52839C22.7574 0.28921 22.6892 0.165659 22.5045 0.0701397C22.3263 -0.0219775 22.2705 -0.0227391 22.071 0.0641984Z" fill="url(#paint0_linear_4009_165)"/>
<defs>
<linearGradient id="paint0_linear_4009_165" x1="0" y1="10.0424" x2="22.7574" y2="10.0424" gradientUnits="userSpaceOnUse">
<stop stop-color="#AE8625"/>
<stop offset="0.337255" stop-color="#F7EF8A"/>
<stop offset="0.724949" stop-color="#D2AC47"/>
<stop offset="1" stop-color="#EDC967"/>
</linearGradient>
</defs>
</svg>
