<svg width="32" height="24" viewBox="0 0 32 24" fill="none" xmlns="http://www.w3.org/2000/svg">
<g opacity="0.1">
<path d="M6.17035 0.0274658C5.10636 0.163073 4.06845 0.554245 3.17136 1.15405C2.68109 1.48263 1.75792 2.4058 1.43455 2.89085C0.646988 4.08523 0.287109 5.25354 0.287109 6.6409C0.281894 7.79355 0.464441 8.59676 0.965142 9.62946C1.784 11.3141 3.453 12.6806 5.24718 13.1344C5.51318 13.2022 5.51839 13.2126 5.33585 14.0993C5.0855 15.3406 4.70997 16.415 4.08409 17.6981C3.25481 19.3931 2.30035 20.6814 0.725223 22.2461C0.307972 22.6581 -0.010182 23.0128 0.000249289 23.0545C0.0524057 23.211 0.407069 23.1536 1.33545 22.8459C4.10496 21.9123 6.28509 20.5979 8.47045 18.5534C11.7094 15.5179 13.733 12.1121 14.2076 8.88362C14.3224 8.10649 14.2859 6.58874 14.1346 5.91071C13.9208 4.96668 13.4044 3.82967 12.8099 2.98995C12.4291 2.45274 11.579 1.62867 11.047 1.26879C10.1551 0.668989 9.04938 0.230877 8.04276 0.0744076C7.56293 0.00138855 6.57717 -0.0246906 6.17035 0.0274658Z" fill="white"/>
<path d="M23.3821 0.0687485C22.3703 0.246078 21.5619 0.569448 20.7326 1.11709C19.3191 2.06112 18.3595 3.44848 17.9161 5.20615C17.817 5.58689 17.8014 5.79552 17.8014 6.66653C17.8014 7.5584 17.817 7.74617 17.9266 8.17907C18.2499 9.47254 18.8132 10.4792 19.7572 11.4128C20.5396 12.1899 21.4002 12.7167 22.4224 13.0348C22.7197 13.1287 22.9753 13.2122 22.9805 13.2174C23.0275 13.2487 22.7093 14.683 22.5215 15.3141C22.0365 16.9153 21.4158 18.2087 20.4457 19.6274C19.8303 20.5297 19.2826 21.1764 18.3647 22.0892C17.4519 22.9915 17.3581 23.1479 17.7023 23.1479C17.9109 23.1479 19.0844 22.7776 19.9659 22.4334C22.9284 21.2651 25.8074 19.085 28.1388 16.2372C30.9552 12.7897 32.207 9.23263 31.675 6.18669C31.4246 4.74718 30.6058 3.17205 29.5679 2.13414C28.5717 1.14317 27.3408 0.465136 25.9169 0.141766C25.3171 0.000944138 23.9715 -0.0355644 23.3821 0.0687485Z" fill="white"/>
</g>
</svg>
