<svg width="1440" height="1694" viewBox="0 0 1440 1694" fill="none" xmlns="http://www.w3.org/2000/svg">
<g opacity="0.05">
<path d="M1548.88 319.059C1548.88 319.059 1538.38 724.556 1412.16 883.162C1301 1022.82 1051.25 731.486 931.954 687.676C853.384 658.983 841.468 1063.06 612.64 1017.01C383.811 970.965 285.709 849.745 209.177 960.781C132.645 1071.82 315.215 1427.25 267.852 1476.2C218.137 1527.7 -89.7972 1341.51 -198.872 1407.41" stroke="url(#paint0_linear_350_158)" stroke-opacity="0.6" stroke-width="1.4" stroke-miterlimit="10"/>
<path d="M1552.85 326.262C1552.85 326.262 1536.13 719.063 1408.59 873.858C1326.33 973.651 1173.06 850.285 1051.8 762.015C1007.38 729.685 966.747 701.681 935.044 691.295C857.024 665.586 841.753 1057.9 616.856 1010.47C391.377 962.258 290.149 844.169 214.428 955.54C210.949 960.587 208.001 966.124 205.584 972.151C154.484 1097.81 314.581 1422.12 267.181 1470.16C262.639 1474.69 256.186 1477.47 247.954 1478.72C162.039 1491.79 -96.9301 1356.4 -194.968 1414.49" stroke="url(#paint1_linear_350_158)" stroke-opacity="0.6" stroke-width="1.4" stroke-miterlimit="10"/>
<path d="M1556.82 333.465C1556.82 333.465 1534.01 713.504 1404.91 864.619C1321.69 961.813 1170.64 843.633 1052.53 760.513C1009.17 730.104 969.348 703.847 938.067 694.793C860.542 672.254 841.85 1052.68 621.126 1003.73C398.822 953.616 294.588 838.593 219.491 950.246C216.137 955.329 213.229 960.844 210.768 966.791C160.333 1092.24 316.07 1414.89 266.389 1464.17C261.847 1468.71 255.328 1471.37 247.162 1472.74C159.273 1487.05 -94.1788 1365.37 -191.131 1421.46" stroke="url(#paint2_linear_350_158)" stroke-opacity="0.6" stroke-width="1.4" stroke-miterlimit="10"/>
<path d="M1560.79 340.668C1560.79 340.668 1531.76 708.012 1401.35 855.314C1317.11 950.095 1168.04 836.928 1053.15 759.078C1011.03 730.643 972.017 706.133 941.09 698.292C863.994 678.803 841.973 1048.08 625.276 997.062C406.225 945.468 298.961 832.897 224.675 944.885C221.321 949.968 218.435 955.523 216.018 961.55C166.118 1086.55 317.679 1407.58 265.718 1458.13C260.989 1462.61 254.656 1465.32 246.491 1466.69C156.573 1482.44 -91.4931 1374.22 -187.294 1428.42" stroke="url(#paint3_linear_350_158)" stroke-opacity="0.6" stroke-width="1.4" stroke-miterlimit="10"/>
<path d="M1564.76 347.87C1564.76 347.87 1529.52 702.519 1397.6 845.955C1312.65 938.311 1165.63 830.276 1053.77 757.642C1012.83 731.062 974.618 708.298 944.299 701.844C867.512 685.472 842.082 1043.16 629.425 990.393C413.736 936.946 303.399 827.32 229.859 939.524C226.548 944.687 223.684 950.282 221.267 956.309C171.967 1080.98 319.288 1400.28 264.859 1452.03C260.251 1456.45 253.798 1459.22 245.819 1460.64C153.872 1477.82 -88.8621 1383.25 -183.458 1435.38" stroke="url(#paint4_linear_350_158)" stroke-opacity="0.6" stroke-width="1.4" stroke-miterlimit="10"/>
<path d="M1568.73 355.073C1568.73 355.073 1527.39 696.96 1394.04 836.651C1308.07 926.593 1163.15 823.505 1054.39 756.206C1014.69 731.601 977.286 710.584 947.323 705.343C870.845 692.087 842.247 1038.06 633.762 983.778C421.061 928.371 307.773 821.624 234.989 934.35C231.715 939.389 228.909 944.9 226.572 950.883C177.632 1075.35 320.898 1392.98 264.188 1445.98C259.46 1450.47 253.007 1453.24 245.094 1454.78C151.173 1473.21 -86.1761 1392.1 -179.62 1442.34" stroke="url(#paint5_linear_350_158)" stroke-opacity="0.6" stroke-width="1.4" stroke-miterlimit="10"/>
<path d="M1572.7 362.276C1572.7 362.276 1525.15 691.467 1390.35 827.412C1303.49 914.875 1160.67 816.733 1055 754.771C1016.49 732.02 979.954 712.87 950.413 708.961C874.243 698.821 842.41 1032.97 637.912 977.109C428.572 919.85 312.211 816.047 240.173 928.989C236.942 934.108 234.159 939.659 231.822 945.642C183.482 1069.78 322.387 1385.74 263.396 1440C258.602 1444.37 252.269 1447.07 244.422 1448.74C148.472 1468.59 -83.4246 1401.07 -175.784 1449.31" stroke="url(#paint6_linear_350_158)" stroke-opacity="0.6" stroke-width="1.4" stroke-miterlimit="10"/>
<path d="M1576.67 369.479C1576.67 369.479 1522.9 685.975 1386.72 817.987C1298.91 903.157 1158.07 810.028 1055.62 753.335C1018.35 732.558 982.437 715.102 953.436 712.459C877.455 705.502 842.641 1027.99 642.062 970.44C436.018 911.209 316.651 810.471 245.357 923.628C242.127 928.747 239.365 934.338 237.072 940.401C189.266 1064.09 324.063 1378.56 262.659 1433.84C257.865 1438.2 251.412 1440.97 243.631 1442.76C145.719 1464.16 -80.7926 1410.11 -171.88 1456.39" stroke="url(#paint7_linear_350_158)" stroke-opacity="0.6" stroke-width="1.4" stroke-miterlimit="10"/>
<path d="M1580.71 376.801C1580.71 376.801 1520.78 680.416 1383.04 808.748C1294.33 891.439 1155.59 803.256 1056.36 751.833C1020.02 733.043 984.985 717.453 956.46 715.958C880.734 712.303 842.685 1022.96 646.332 963.704C443.409 902.753 321.024 804.775 250.421 918.334C247.315 923.488 244.615 929.097 242.322 935.16C195.051 1058.4 325.672 1371.25 261.988 1427.79C257.073 1432.22 250.74 1434.93 242.959 1436.71C143.019 1459.55 -78.107 1418.95 -168.043 1463.35" stroke="url(#paint8_linear_350_158)" stroke-opacity="0.6" stroke-width="1.4" stroke-miterlimit="10"/>
<path d="M1584.67 384.004C1584.67 384.004 1518.54 674.923 1379.48 799.444C1289.75 879.721 1152.99 796.55 1056.91 750.277C1021.82 733.462 987.587 719.619 959.549 719.576C883.826 719.05 842.849 1017.86 650.548 957.155C450.854 894.112 325.463 799.198 255.671 913.093C252.441 918.212 249.719 923.781 247.506 929.8C200.901 1052.83 327.347 1364.07 261.196 1421.81C256.335 1426.05 249.949 1428.95 242.168 1430.73C140.385 1455.05 -75.3553 1427.92 -164.206 1470.31" stroke="url(#paint9_linear_350_158)" stroke-opacity="0.6" stroke-width="1.4" stroke-miterlimit="10"/>
<path d="M1588.64 391.207C1588.64 391.207 1516.41 669.364 1375.8 790.205C1285.11 867.883 1150.33 789.725 1057.53 748.842C1023.62 733.881 990.135 721.971 962.693 723.008C887.104 725.851 843.013 1012.76 654.698 950.486C458.299 885.47 329.836 793.502 260.855 907.732C257.669 912.931 254.969 918.54 252.756 924.559C206.565 1047.2 329.023 1356.89 260.524 1415.76C255.478 1419.95 249.091 1422.84 241.496 1424.68C137.631 1450.62 -72.6036 1436.89 -160.369 1477.28" stroke="url(#paint10_linear_350_158)" stroke-opacity="0.6" stroke-width="1.4" stroke-miterlimit="10"/>
<path d="M1592.61 398.41C1592.61 398.41 1514.17 663.871 1372.17 780.78C1280.53 856.165 1147.73 783.02 1058.14 747.406C1025.29 734.366 992.562 724.389 965.782 726.627C890.142 732.784 843.176 1007.66 658.968 943.751C465.81 876.949 334.275 787.926 265.918 902.438C262.856 907.673 260.219 913.299 258.006 919.318C212.415 1041.63 330.632 1349.58 259.666 1409.66C254.686 1413.97 248.419 1416.8 240.704 1418.7C134.997 1446.12 -70.0385 1445.81 -156.533 1484.24" stroke="url(#paint11_linear_350_158)" stroke-opacity="0.6" stroke-width="1.4" stroke-miterlimit="10"/>
<path d="M1596.58 405.612C1596.58 405.612 1511.92 658.379 1368.48 771.541C1276.07 844.38 1145.06 776.194 1058.76 745.97C1027.09 734.785 995.111 726.741 968.806 730.125C893.367 739.772 843.274 1002.44 663.118 937.082C473.255 868.308 338.714 782.349 271.103 897.077C268.04 902.312 265.403 907.939 263.19 913.957C218.199 1035.94 332.308 1342.4 258.995 1403.61C253.948 1407.8 247.561 1410.7 240.099 1412.78C132.243 1441.7 -67.2864 1454.78 -152.695 1491.2" stroke="url(#paint12_linear_350_158)" stroke-opacity="0.6" stroke-width="1.4" stroke-miterlimit="10"/>
<path d="M1600.55 412.815C1600.55 412.815 1509.8 652.82 1364.92 762.237C1271.49 832.663 1142.27 769.435 1059.5 744.468C1028.76 735.27 997.725 729.213 971.829 733.624C896.405 746.705 843.438 997.344 667.334 930.533C480.7 859.667 343.207 776.587 276.352 891.836C273.29 897.071 270.652 902.698 268.44 908.717C224.049 1030.37 334.103 1335.15 258.203 1397.63C253.156 1401.82 246.889 1404.65 239.307 1406.8C129.489 1437.27 -64.5351 1463.75 -148.793 1498.28" stroke="url(#paint13_linear_350_158)" stroke-opacity="0.6" stroke-width="1.4" stroke-miterlimit="10"/>
<path d="M1604.52 420.018C1604.52 420.018 1507.55 647.327 1361.17 752.878C1266.91 820.945 1139.42 762.555 1060.12 743.033C1030.44 735.755 1000.15 731.631 974.919 737.242C899.456 753.944 843.602 992.245 671.604 923.798C488.145 851.025 347.646 771.011 281.416 886.542C278.434 891.732 275.859 897.377 273.69 903.476C229.714 1024.74 335.845 1328.09 257.532 1391.59C252.419 1395.66 246.032 1398.55 238.636 1400.75C126.921 1432.89 -61.9692 1472.66 -144.955 1505.25" stroke="url(#paint14_linear_350_158)" stroke-opacity="0.6" stroke-width="1.4" stroke-miterlimit="10"/>
<path d="M1608.49 427.221C1608.49 427.221 1505.31 641.835 1357.61 743.573C1262.33 809.227 1136.52 755.862 1060.73 741.597C1032.05 736.12 1002.77 734.103 977.942 740.741C902.56 760.998 843.82 986.961 675.754 917.129C495.524 842.264 352.019 765.314 286.6 881.181C283.662 886.452 281.087 892.097 278.874 898.115C235.497 1019.05 337.52 1320.9 256.794 1385.42C251.561 1389.56 245.24 1392.57 237.844 1394.77C124.167 1428.46 -59.2177 1481.63 -141.119 1512.21" stroke="url(#paint15_linear_350_158)" stroke-opacity="0.6" stroke-width="1.4" stroke-miterlimit="10"/>
<path d="M1612.53 434.543C1612.53 434.543 1503.19 636.276 1353.93 734.335C1257.75 797.509 1133.49 749.235 1061.35 740.161C1033.73 736.605 1005.2 736.52 980.966 744.239C905.677 768.357 843.984 981.862 679.904 910.46C503.089 833.556 356.458 759.738 291.784 875.82C288.846 881.091 286.333 886.754 284.244 892.808C241.348 1013.48 339.262 1313.84 256.003 1379.44C250.77 1383.58 244.569 1386.52 237.173 1388.72C121.48 1424.15 -56.5319 1490.48 -137.281 1519.17" stroke="url(#paint16_linear_350_158)" stroke-opacity="0.6" stroke-width="1.4" stroke-miterlimit="10"/>
<path d="M1616.5 441.746C1616.5 441.746 1500.94 630.783 1350.37 725.03C1253.1 785.671 1130.46 742.608 1061.97 738.726C1035.28 737.156 1007.69 739.059 984.175 747.791C908.847 775.531 844.082 976.644 684.24 903.845C510.534 824.915 360.897 754.162 297.034 870.58C294.096 875.85 291.583 881.513 289.494 887.568C247.132 1007.79 340.937 1306.66 255.331 1373.39C250.032 1377.41 243.711 1380.42 236.501 1382.68C118.792 1419.84 -53.9002 1499.52 -133.444 1526.14" stroke="url(#paint17_linear_350_158)" stroke-opacity="0.6" stroke-width="1.4" stroke-miterlimit="10"/>
<path d="M1620.46 448.949C1620.46 448.949 1498.7 625.29 1346.74 715.605C1248.53 773.953 1127.2 736.114 1062.64 737.104C1036.77 737.587 1010.3 741.531 987.199 751.29C912.031 783.01 844.3 971.359 688.391 897.176C517.914 816.154 365.271 748.465 302.098 865.285C299.24 870.512 296.767 876.152 294.678 882.207C252.983 1002.22 342.679 1299.59 254.474 1367.29C249.241 1371.43 242.92 1374.44 235.71 1376.7C116.29 1415.59 -51.1482 1508.48 -129.607 1533.1" stroke="url(#paint18_linear_350_158)" stroke-opacity="0.6" stroke-width="1.4" stroke-miterlimit="10"/>
<path d="M1624.43 456.151C1624.43 456.151 1496.57 619.731 1343.05 706.366C1243.95 762.235 1124 729.739 1063.26 735.668C1038.33 738.138 1012.86 744.188 990.288 754.908C915.213 790.49 844.518 966.074 692.541 890.507C525.413 807.326 369.71 742.889 307.282 859.924C304.468 865.231 302.017 870.911 299.928 876.966C258.647 996.59 344.541 1292.46 253.802 1361.25C248.503 1365.26 242.248 1368.4 235.104 1370.77C113.603 1411.28 -48.4627 1517.33 -125.77 1540.06" stroke="url(#paint19_linear_350_158)" stroke-opacity="0.6" stroke-width="1.4" stroke-miterlimit="10"/>
<path d="M1628.4 463.354C1628.4 463.354 1494.33 614.239 1339.49 697.062C1239.49 750.451 1120.74 723.551 1063.87 734.232C1039.76 738.756 1015.36 746.727 993.311 758.407C918.515 797.904 844.735 960.79 696.756 883.959C532.977 798.619 374.082 737.193 312.465 854.564C309.696 859.95 307.266 865.671 305.178 871.726C264.496 991.019 346.282 1285.4 253.01 1355.27C247.711 1359.28 241.39 1362.3 234.312 1364.79C110.98 1407.09 -45.7118 1526.3 -121.868 1547.14" stroke="url(#paint20_linear_350_158)" stroke-opacity="0.6" stroke-width="1.4" stroke-miterlimit="10"/>
<path d="M1632.37 470.557C1632.37 470.557 1492.2 608.68 1335.74 687.703C1234.91 738.733 1117.44 717.548 1064.49 732.797C1041.26 739.493 1018.04 749.319 996.335 761.905C921.951 805.557 844.833 955.572 701.026 877.223C540.476 789.791 378.521 731.616 317.53 849.269C314.84 854.612 312.451 860.31 310.362 866.365C270.281 985.327 348.024 1278.34 252.338 1349.22C246.853 1353.18 240.599 1356.32 233.641 1358.74C108.359 1402.9 -43.0798 1535.34 -118.031 1554.11" stroke="url(#paint21_linear_350_158)" stroke-opacity="0.6" stroke-width="1.4" stroke-miterlimit="10"/>
<path d="M1636.34 477.759C1636.34 477.759 1489.96 603.187 1332.18 678.398C1230.33 727.014 1114.26 711.786 1065.11 731.361C1042.77 740.23 1020.65 751.79 999.424 765.523C925.32 813.09 845.171 950.221 705.176 870.554C547.975 780.963 382.96 726.04 322.78 844.028C320.01 849.415 317.621 855.113 315.612 861.124C276.065 979.635 349.765 1271.27 251.601 1343.05C246.182 1347.14 239.927 1350.27 232.849 1352.76C105.737 1398.71 -40.3942 1544.19 -114.194 1561.07" stroke="url(#paint22_linear_350_158)" stroke-opacity="0.6" stroke-width="1.4" stroke-miterlimit="10"/>
<path d="M1640.31 484.962C1640.31 484.962 1487.71 597.694 1328.5 669.159C1225.75 715.297 1111.09 706.024 1065.85 729.859C1044.33 741.088 1023.21 754.449 1002.57 768.956C928.755 820.744 845.388 944.936 709.326 863.885C555.474 772.136 387.333 720.344 327.963 838.667C325.194 844.054 322.826 849.793 320.862 855.884C281.795 974.13 351.507 1264.21 250.809 1337.07C245.324 1341.04 239.069 1344.17 232.177 1346.72C103.115 1394.52 -37.6427 1553.16 -110.357 1568.03" stroke="url(#paint23_linear_350_158)" stroke-opacity="0.6" stroke-width="1.4" stroke-miterlimit="10"/>
<path d="M1644.35 492.285C1644.35 492.285 1485.52 592.015 1324.93 659.855C1221.1 703.459 1108.23 700.556 1066.46 728.423C1045.97 742.066 1025.89 757.041 1005.66 772.574C932.376 828.451 845.606 939.652 713.662 857.27C562.973 763.308 391.772 714.767 333.027 833.373C330.381 838.795 328.076 844.552 326.112 850.643C287.579 968.439 353.368 1257.08 250.137 1331.03C244.652 1334.99 238.277 1338.19 231.386 1340.74C100.56 1390.45 -35.0113 1562.19 -106.52 1574.99" stroke="url(#paint24_linear_350_158)" stroke-opacity="0.6" stroke-width="1.4" stroke-miterlimit="10"/>
<path d="M1648.31 499.488C1648.31 499.488 1483.28 586.523 1321.19 650.496C1216.52 691.741 1105.37 695.087 1067.08 726.988C1047.72 742.977 1028.57 759.633 1008.68 776.073C935.998 836.159 845.878 934.181 717.812 850.601C570.592 754.415 396.145 709.071 338.211 828.012C335.565 833.435 333.26 839.191 331.296 845.282C293.429 962.867 355.176 1250.14 249.28 1324.93C243.794 1328.89 237.606 1332.14 230.714 1334.69C97.9383 1386.26 -32.3255 1571.04 -102.683 1581.96" stroke="url(#paint25_linear_350_158)" stroke-opacity="0.6" stroke-width="1.4" stroke-miterlimit="10"/>
<path d="M1652.28 506.69C1652.28 506.69 1481.04 581.03 1317.62 641.191C1211.94 680.023 1102.82 689.607 1067.7 725.552C1049.54 744.008 1031.25 762.224 1011.7 779.571C939.619 843.866 846.096 928.896 721.962 843.932C578.211 745.521 400.585 703.495 343.461 822.771C340.816 828.194 338.551 833.928 336.666 839.975C299.214 957.176 356.918 1243.07 248.608 1318.88C243.003 1322.91 236.748 1326.04 229.989 1328.83C95.3831 1382.19 -29.5735 1580.01 -98.7797 1589.04" stroke="url(#paint26_linear_350_158)" stroke-opacity="0.6" stroke-width="1.4" stroke-miterlimit="10"/>
<path d="M1656.25 513.893C1656.25 513.893 1478.91 575.471 1313.94 631.953C1207.36 668.305 1100.39 684.06 1068.25 723.996C1051.48 744.974 1033.93 764.817 1014.79 783.19C943.361 851.508 846.434 923.546 726.232 837.197C585.83 736.627 405.024 697.919 348.525 817.477C345.96 822.855 343.757 828.608 341.916 834.735C305.064 951.604 358.726 1236.13 247.937 1312.83C242.265 1316.74 236.077 1320 229.318 1322.78C93.0139 1378.18 -27.0079 1588.93 -94.9426 1596" stroke="url(#paint27_linear_350_158)" stroke-opacity="0.6" stroke-width="1.4" stroke-miterlimit="10"/>
<path d="M1660.22 521.096C1660.22 521.096 1476.67 569.979 1310.31 622.528C1202.9 656.521 1098.2 678.382 1068.99 722.494C1053.42 745.939 1036.61 767.409 1017.82 786.688C947.168 859.269 846.705 918.075 730.448 830.648C593.382 727.614 409.396 692.222 353.709 812.116C351.187 817.575 348.984 823.327 347.099 829.374C310.727 945.979 360.533 1229.19 247.145 1306.85C241.451 1310.72 235.245 1314.04 228.525 1316.8C90.4576 1374.11 -24.2569 1597.89 -91.1064 1602.96" stroke="url(#paint28_linear_350_158)" stroke-opacity="0.6" stroke-width="1.4" stroke-miterlimit="10"/>
<path d="M1664.19 528.299C1664.19 528.299 1474.42 564.486 1306.63 613.289C1198.32 644.803 1096.01 672.703 1069.6 721.059C1055.48 746.838 1039.42 769.934 1020.84 790.187C950.976 867.03 847.164 912.658 734.599 823.979C601.122 718.654 413.836 686.646 358.893 806.755C356.416 812.294 354.235 818.087 352.35 824.133C316.512 940.288 362.462 1222.18 246.408 1300.69C240.634 1304.6 234.45 1307.96 227.855 1310.76C87.9032 1370.04 -21.5043 1606.86 -87.2685 1609.93" stroke="url(#paint29_linear_350_158)" stroke-opacity="0.6" stroke-width="1.4" stroke-miterlimit="10"/>
<path d="M1668.16 535.501C1668.16 535.501 1472.3 558.927 1303.07 603.984C1193.74 633.084 1093.99 666.771 1070.22 719.623C1057.66 747.67 1042.1 772.526 1024.05 793.738C954.837 874.605 847.435 907.187 738.868 817.244C608.861 709.694 418.208 680.949 364.023 801.58C361.581 806.995 359.44 812.766 357.6 818.892C322.362 934.716 364.401 1215.47 245.616 1294.71C239.922 1298.57 233.738 1301.93 227.062 1304.77C85.4131 1366.09 -18.8195 1615.71 -83.4323 1616.89" stroke="url(#paint30_linear_350_158)" stroke-opacity="0.6" stroke-width="1.4" stroke-miterlimit="10"/>
<path d="M1672.13 542.704C1672.13 542.704 1124.54 571.687 1070.84 718.187C1017.07 864.568 875.223 925.522 743.018 810.575C610.813 695.629 404.895 673.262 362.784 813.532C326.53 934.61 369.858 1235.32 226.391 1298.73C82.924 1362.14 -16.1875 1624.75 -79.5951 1623.85" stroke="url(#paint31_linear_350_158)" stroke-opacity="0.6" stroke-width="1.4" stroke-miterlimit="10"/>
<path d="M1559.2 337.786C1334.9 262.171 1350.36 657.425 1072.44 794.929C940.161 860.469 565.337 434.76 458.367 504.195C351.464 573.749 429.111 1084.97 329.384 1235.71C229.724 1386.57 -79.7594 1294.98 -102.816 1581.72" stroke="url(#paint32_linear_350_158)" stroke-opacity="0.6" stroke-width="1.5" stroke-miterlimit="10"/>
<path d="M1564.89 348.11C1342.89 285.47 1343.23 657.281 1067.61 789.295C933.622 853.431 569.059 448.046 463.329 520.866C353.368 596.8 419.835 1080.07 317.56 1228.45C215.22 1376.72 -84.929 1296.1 -105.859 1576.19" stroke="url(#paint33_linear_350_158)" stroke-opacity="0.6" stroke-width="1.5" stroke-miterlimit="10"/>
<path d="M1570.58 358.434C1350.69 308.715 1336.05 657.017 1062.6 783.606C927.083 846.392 572.728 461.519 468.292 537.538C355.274 619.852 410.626 1075.29 305.857 1221.13C200.902 1366.92 -90.0976 1297.23 -108.967 1570.55" stroke="url(#paint34_linear_350_158)" stroke-opacity="0.6" stroke-width="1.5" stroke-miterlimit="10"/>
<path d="M1576.21 368.638C1358.61 331.893 1328.67 656.698 1057.71 777.851C920.477 839.234 576.581 475.044 473.253 554.21C357.19 643.21 401.416 1070.5 293.966 1213.76C186.583 1357.13 -95.3217 1298.54 -112.011 1565.03" stroke="url(#paint35_linear_350_158)" stroke-opacity="0.6" stroke-width="1.5" stroke-miterlimit="10"/>
<path d="M1581.9 378.962C1366.53 355.072 1321.42 656.314 1052.76 772.283C913.938 832.195 580.382 488.757 478.215 570.882C359.107 666.568 392.14 1065.6 282.143 1206.5C172.146 1347.4 -100.491 1299.67 -115.054 1559.51" stroke="url(#paint36_linear_350_158)" stroke-opacity="0.6" stroke-width="1.5" stroke-miterlimit="10"/>
<path d="M1587.58 389.286C1374.33 378.317 1313.91 655.756 1047.87 766.528C907.212 825.103 584.369 502.523 483.177 587.553C360.97 690.112 382.93 1060.81 270.373 1199.06C157.761 1337.49 -105.594 1300.92 -118.098 1553.99" stroke="url(#paint37_linear_350_158)" stroke-opacity="0.6" stroke-width="1.5" stroke-miterlimit="10"/>
<path d="M1593.27 399.61C1382.32 401.616 1306.52 655.132 1042.85 760.84C900.607 817.945 588.302 516.476 488.019 604.292C362.953 713.59 373.655 1055.91 258.549 1191.8C143.443 1327.69 -110.884 1302.11 -121.141 1548.46" stroke="url(#paint38_linear_350_158)" stroke-opacity="0.6" stroke-width="1.5" stroke-miterlimit="10"/>
<path d="M1598.9 409.814C1390.12 424.861 1298.95 654.453 1038.03 755.205C893.881 810.852 592.42 530.482 492.914 620.843C365.068 737.308 364.445 1051.12 246.725 1184.54C129.005 1317.96 -116.053 1303.24 -124.184 1542.94" stroke="url(#paint39_linear_350_158)" stroke-opacity="0.6" stroke-width="1.5" stroke-miterlimit="10"/>
<path d="M1604.59 420.137C1398.04 448.039 1291.38 653.775 1033.13 749.45C887.21 803.574 596.419 544.554 497.876 637.515C367.183 761.026 355.169 1046.22 234.955 1177.1C114.621 1308.05 -121.276 1304.55 -127.227 1537.42" stroke="url(#paint40_linear_350_158)" stroke-opacity="0.6" stroke-width="1.5" stroke-miterlimit="10"/>
<path d="M1610.28 430.461C1405.84 471.284 1283.67 652.857 1028.19 743.881C880.418 796.361 600.604 558.681 502.838 654.187C369.299 784.744 345.959 1041.44 223.131 1169.85C100.303 1298.26 -126.446 1305.68 -130.27 1531.9" stroke="url(#paint41_linear_350_158)" stroke-opacity="0.6" stroke-width="1.5" stroke-miterlimit="10"/>
<path d="M1615.96 440.785C1413.77 494.463 1276.09 651.872 1023.29 738.127C873.746 789.083 604.789 572.807 507.8 670.859C371.48 808.582 336.683 1036.53 211.241 1162.47C85.9847 1288.46 -131.549 1306.93 -133.313 1526.37" stroke="url(#paint42_linear_350_158)" stroke-opacity="0.6" stroke-width="1.5" stroke-miterlimit="10"/>
<path d="M1621.59 450.989C1421.63 517.828 1268.32 650.833 1018.28 732.438C866.955 781.87 609.041 587.053 512.762 687.53C373.728 832.54 327.474 1031.75 199.537 1155.15C71.4805 1278.61 -136.839 1308.12 -136.356 1520.85" stroke="url(#paint43_linear_350_158)" stroke-opacity="0.6" stroke-width="1.5" stroke-miterlimit="10"/>
<path d="M1627.28 461.313C1429.56 541.006 1260.55 649.795 1013.46 726.803C860.097 774.537 613.293 601.299 517.724 704.202C376.162 856.552 318.199 1026.84 187.714 1147.89C57.1631 1268.82 -141.941 1309.37 -139.399 1515.33" stroke="url(#paint44_linear_350_158)" stroke-opacity="0.6" stroke-width="1.5" stroke-miterlimit="10"/>
<path d="M1632.97 471.637C1437.48 564.186 1252.83 648.571 1008.44 721.115C853.36 767.139 617.61 615.666 522.686 720.874C378.41 880.51 308.989 1022.06 175.824 1140.51C42.845 1259.02 -147.111 1310.49 -142.442 1509.81" stroke="url(#paint45_linear_350_158)" stroke-opacity="0.6" stroke-width="1.5" stroke-miterlimit="10"/>
<path d="M1638.66 481.961C1445.28 587.431 1244.92 647.292 1003.55 715.36C846.501 759.807 621.927 630.032 527.647 737.546C380.909 904.642 299.779 1017.27 164.119 1133.19C28.3402 1249.18 -152.401 1311.69 -145.486 1504.29" stroke="url(#paint46_linear_350_158)" stroke-opacity="0.6" stroke-width="1.5" stroke-miterlimit="10"/>
<path d="M1644.28 492.164C1453.2 610.609 1237.07 645.827 998.603 709.791C839.698 752.288 626.365 644.332 532.543 754.097C383.409 928.774 290.503 1012.37 152.296 1125.94C14.0224 1239.38 -157.504 1312.93 -148.529 1498.76" stroke="url(#paint47_linear_350_158)" stroke-opacity="0.6" stroke-width="1.5" stroke-miterlimit="10"/>
<path d="M1649.97 502.488C1461.07 633.974 1229.11 644.428 993.71 704.037C832.708 744.716 630.683 658.699 537.386 770.835C385.91 952.906 281.294 1007.58 140.406 1118.56C-0.295172 1229.59 -162.673 1314.06 -151.637 1493.12" stroke="url(#paint48_linear_350_158)" stroke-opacity="0.6" stroke-width="1.5" stroke-miterlimit="10"/>
<path d="M1655.66 512.813C1468.99 657.153 1221.26 642.964 988.818 698.282C825.904 737.197 635.186 673.119 542.348 787.507C388.596 977.092 272.018 1002.68 128.703 1111.24C-14.7993 1219.74 -167.896 1315.38 -154.68 1487.6" stroke="url(#paint49_linear_350_158)" stroke-opacity="0.6" stroke-width="1.5" stroke-miterlimit="10"/>
<path d="M1661.35 523.136C1476.79 680.398 1213.34 641.379 983.871 692.713C819.034 729.558 639.69 687.539 547.31 804.179C391.349 1001.4 262.809 997.895 116.813 1103.86C-29.1172 1209.95 -173.065 1316.5 -157.723 1482.08" stroke="url(#paint50_linear_350_158)" stroke-opacity="0.6" stroke-width="1.5" stroke-miterlimit="10"/>
<path d="M1666.97 533.34C1484.71 703.576 1205.36 639.674 978.978 686.959C812.097 721.799 644.193 701.96 552.271 820.851C394.034 1025.58 253.532 992.991 104.988 1096.6C-43.4358 1200.15 -178.235 1317.63 -160.767 1476.56" stroke="url(#paint51_linear_350_158)" stroke-opacity="0.6" stroke-width="1.5" stroke-miterlimit="10"/>
<path d="M1672.66 543.664C1492.58 726.942 1197.5 637.903 973.965 681.27C805.228 714.161 648.697 716.38 557.233 837.523C396.787 1049.89 244.323 988.207 93.1646 1089.35C-57.9399 1190.3 -183.458 1318.94 -163.81 1471.03" stroke="url(#paint52_linear_350_158)" stroke-opacity="0.6" stroke-width="1.5" stroke-miterlimit="10"/>
<path d="M1678.35 553.988C1500.5 750.12 1189.45 636.078 969.139 675.635C798.226 706.282 653.201 730.8 562.195 854.194C399.726 1074.25 234.927 983.368 81.395 1081.91C-72.2575 1180.51 -188.627 1320.07 -166.853 1465.51" stroke="url(#paint53_linear_350_158)" stroke-opacity="0.6" stroke-width="1.5" stroke-miterlimit="10"/>
<path d="M1684.04 564.312C1508.43 773.299 1181.52 634.187 964.126 669.947C791.343 698.337 657.825 745.155 567.157 870.866C402.665 1098.61 225.718 978.584 69.5713 1074.65C-86.5754 1170.71 -193.85 1321.38 -169.896 1459.99" stroke="url(#paint54_linear_350_158)" stroke-opacity="0.6" stroke-width="1.5" stroke-miterlimit="10"/>
<path d="M1689.66 574.516C1516.23 796.544 1173.52 632.176 959.233 664.192C784.461 690.392 662.394 759.695 572.053 887.418C405.603 1122.97 216.442 973.68 57.6809 1067.27C-101.014 1160.99 -199.02 1322.51 -172.939 1454.47" stroke="url(#paint55_linear_350_158)" stroke-opacity="0.6" stroke-width="1.5" stroke-miterlimit="10"/>
<path d="M1695.35 584.84C1524.15 819.723 1165.65 630.099 954.406 658.557C777.512 682.327 667.018 774.049 577.015 904.09C408.608 1147.45 207.232 968.895 45.9772 1059.95C-115.398 1151.07 -204.123 1323.76 -175.982 1448.95" stroke="url(#paint56_linear_350_158)" stroke-opacity="0.6" stroke-width="1.5" stroke-miterlimit="10"/>
<path d="M1701.04 595.164C1532.02 843.088 1157.71 627.902 949.393 652.869C770.564 674.262 671.588 788.589 581.976 920.762C411.732 1171.86 198.022 964.111 34.1531 1052.69C-129.716 1141.28 -209.413 1324.95 -179.026 1443.42" stroke="url(#paint57_linear_350_158)" stroke-opacity="0.6" stroke-width="1.5" stroke-miterlimit="10"/>
<path d="M1706.73 605.487C1539.94 866.267 1149.77 625.705 944.5 647.114C763.669 666.011 676.278 803.064 586.938 937.433C414.857 1196.28 188.747 959.206 22.2632 1045.32C-144.034 1131.48 -214.582 1326.08 -182.069 1437.9" stroke="url(#paint58_linear_350_158)" stroke-opacity="0.6" stroke-width="1.5" stroke-miterlimit="10"/>
<path d="M1712.35 615.691C1547.74 889.511 1141.83 623.507 939.553 641.545C756.774 657.76 680.901 817.417 591.78 954.171C417.981 1220.69 179.537 954.422 10.5592 1038C-158.539 1121.63 -219.686 1327.33 -185.112 1432.38" stroke="url(#paint59_linear_350_158)" stroke-opacity="0.6" stroke-width="1.5" stroke-miterlimit="10"/>
<path d="M1718.04 626.015C1555.66 912.69 1134.01 621.244 934.66 635.79C749.813 649.389 685.591 831.892 596.741 970.843C421.172 1245.22 170.261 949.517 -1.26518 1030.74C-172.857 1111.84 -224.975 1328.52 -188.155 1426.86" stroke="url(#paint60_linear_350_158)" stroke-opacity="0.6" stroke-width="1.5" stroke-miterlimit="10"/>
<path d="M1723.73 636.339C1563.58 935.869 1126.12 618.861 929.714 630.222C742.973 640.952 690.281 846.366 601.704 987.515C424.484 1269.69 161.052 944.733 -13.1546 1023.36C-187.174 1102.05 -230.078 1329.77 -191.198 1421.34" stroke="url(#paint61_linear_350_158)" stroke-opacity="0.6" stroke-width="1.5" stroke-miterlimit="10"/>
<path d="M1729.42 646.663C1571.45 959.234 1118.36 616.411 924.821 624.467C736.186 632.328 694.971 860.84 606.6 1004.07C427.795 1294.16 151.776 939.829 -24.8583 1016.04C-201.679 1092.2 -235.247 1330.89 -194.307 1415.69" stroke="url(#paint62_linear_350_158)" stroke-opacity="0.6" stroke-width="1.5" stroke-miterlimit="10"/>
<path d="M1735.04 656.867C1579.37 982.413 1110.59 613.961 919.808 618.779C729.213 623.65 699.781 875.248 611.562 1020.74C431.105 1318.63 142.566 935.044 -36.7483 1008.66C-215.997 1082.4 -240.537 1332.09 -197.35 1410.17" stroke="url(#paint63_linear_350_158)" stroke-opacity="0.6" stroke-width="1.5" stroke-miterlimit="10"/>
</g>
<defs>
<linearGradient id="paint0_linear_350_158" x1="-170.137" y1="1459.55" x2="1630.54" y2="467.238" gradientUnits="userSpaceOnUse">
<stop stop-color="#AE8625"/>
<stop offset="0.337255" stop-color="#F7EF8A"/>
<stop offset="0.724949" stop-color="#D2AC47"/>
<stop offset="1" stop-color="#EDC967"/>
</linearGradient>
<linearGradient id="paint1_linear_350_158" x1="-173.233" y1="1453.93" x2="1627.45" y2="461.618" gradientUnits="userSpaceOnUse">
<stop stop-color="#AE8625"/>
<stop offset="0.337255" stop-color="#F7EF8A"/>
<stop offset="0.724949" stop-color="#D2AC47"/>
<stop offset="1" stop-color="#EDC967"/>
</linearGradient>
<linearGradient id="paint2_linear_350_158" x1="-176.364" y1="1448.25" x2="1624.32" y2="455.937" gradientUnits="userSpaceOnUse">
<stop stop-color="#AE8625"/>
<stop offset="0.337255" stop-color="#F7EF8A"/>
<stop offset="0.724949" stop-color="#D2AC47"/>
<stop offset="1" stop-color="#EDC967"/>
</linearGradient>
<linearGradient id="paint3_linear_350_158" x1="-179.491" y1="1442.58" x2="1621.19" y2="450.263" gradientUnits="userSpaceOnUse">
<stop stop-color="#AE8625"/>
<stop offset="0.337255" stop-color="#F7EF8A"/>
<stop offset="0.724949" stop-color="#D2AC47"/>
<stop offset="1" stop-color="#EDC967"/>
</linearGradient>
<linearGradient id="paint4_linear_350_158" x1="-182.634" y1="1436.88" x2="1618.05" y2="444.562" gradientUnits="userSpaceOnUse">
<stop stop-color="#AE8625"/>
<stop offset="0.337255" stop-color="#F7EF8A"/>
<stop offset="0.724949" stop-color="#D2AC47"/>
<stop offset="1" stop-color="#EDC967"/>
</linearGradient>
<linearGradient id="paint5_linear_350_158" x1="-185.746" y1="1431.23" x2="1614.93" y2="438.914" gradientUnits="userSpaceOnUse">
<stop stop-color="#AE8625"/>
<stop offset="0.337255" stop-color="#F7EF8A"/>
<stop offset="0.724949" stop-color="#D2AC47"/>
<stop offset="1" stop-color="#EDC967"/>
</linearGradient>
<linearGradient id="paint6_linear_350_158" x1="-188.863" y1="1425.57" x2="1611.82" y2="433.258" gradientUnits="userSpaceOnUse">
<stop stop-color="#AE8625"/>
<stop offset="0.337255" stop-color="#F7EF8A"/>
<stop offset="0.724949" stop-color="#D2AC47"/>
<stop offset="1" stop-color="#EDC967"/>
</linearGradient>
<linearGradient id="paint7_linear_350_158" x1="-192.004" y1="1419.87" x2="1608.68" y2="427.557" gradientUnits="userSpaceOnUse">
<stop stop-color="#AE8625"/>
<stop offset="0.337255" stop-color="#F7EF8A"/>
<stop offset="0.724949" stop-color="#D2AC47"/>
<stop offset="1" stop-color="#EDC967"/>
</linearGradient>
<linearGradient id="paint8_linear_350_158" x1="-195.129" y1="1414.2" x2="1605.55" y2="421.886" gradientUnits="userSpaceOnUse">
<stop stop-color="#AE8625"/>
<stop offset="0.337255" stop-color="#F7EF8A"/>
<stop offset="0.724949" stop-color="#D2AC47"/>
<stop offset="1" stop-color="#EDC967"/>
</linearGradient>
<linearGradient id="paint9_linear_350_158" x1="-197.58" y1="1409.75" x2="1603.1" y2="417.439" gradientUnits="userSpaceOnUse">
<stop stop-color="#AE8625"/>
<stop offset="0.337255" stop-color="#F7EF8A"/>
<stop offset="0.724949" stop-color="#D2AC47"/>
<stop offset="1" stop-color="#EDC967"/>
</linearGradient>
<linearGradient id="paint10_linear_350_158" x1="-199.581" y1="1406.12" x2="1601.1" y2="413.808" gradientUnits="userSpaceOnUse">
<stop stop-color="#AE8625"/>
<stop offset="0.337255" stop-color="#F7EF8A"/>
<stop offset="0.724949" stop-color="#D2AC47"/>
<stop offset="1" stop-color="#EDC967"/>
</linearGradient>
<linearGradient id="paint11_linear_350_158" x1="-201.554" y1="1402.54" x2="1599.13" y2="410.227" gradientUnits="userSpaceOnUse">
<stop stop-color="#AE8625"/>
<stop offset="0.337255" stop-color="#F7EF8A"/>
<stop offset="0.724949" stop-color="#D2AC47"/>
<stop offset="1" stop-color="#EDC967"/>
</linearGradient>
<linearGradient id="paint12_linear_350_158" x1="-203.544" y1="1398.93" x2="1597.14" y2="406.616" gradientUnits="userSpaceOnUse">
<stop stop-color="#AE8625"/>
<stop offset="0.337255" stop-color="#F7EF8A"/>
<stop offset="0.724949" stop-color="#D2AC47"/>
<stop offset="1" stop-color="#EDC967"/>
</linearGradient>
<linearGradient id="paint13_linear_350_158" x1="-205.507" y1="1395.37" x2="1595.17" y2="403.054" gradientUnits="userSpaceOnUse">
<stop stop-color="#AE8625"/>
<stop offset="0.337255" stop-color="#F7EF8A"/>
<stop offset="0.724949" stop-color="#D2AC47"/>
<stop offset="1" stop-color="#EDC967"/>
</linearGradient>
<linearGradient id="paint14_linear_350_158" x1="-207.501" y1="1391.75" x2="1593.18" y2="399.436" gradientUnits="userSpaceOnUse">
<stop stop-color="#AE8625"/>
<stop offset="0.337255" stop-color="#F7EF8A"/>
<stop offset="0.724949" stop-color="#D2AC47"/>
<stop offset="1" stop-color="#EDC967"/>
</linearGradient>
<linearGradient id="paint15_linear_350_158" x1="-209.511" y1="1388.1" x2="1591.17" y2="395.789" gradientUnits="userSpaceOnUse">
<stop stop-color="#AE8625"/>
<stop offset="0.337255" stop-color="#F7EF8A"/>
<stop offset="0.724949" stop-color="#D2AC47"/>
<stop offset="1" stop-color="#EDC967"/>
</linearGradient>
<linearGradient id="paint16_linear_350_158" x1="-211.484" y1="1384.52" x2="1589.2" y2="392.208" gradientUnits="userSpaceOnUse">
<stop stop-color="#AE8625"/>
<stop offset="0.337255" stop-color="#F7EF8A"/>
<stop offset="0.724949" stop-color="#D2AC47"/>
<stop offset="1" stop-color="#EDC967"/>
</linearGradient>
<linearGradient id="paint17_linear_350_158" x1="-213.464" y1="1380.93" x2="1587.22" y2="388.616" gradientUnits="userSpaceOnUse">
<stop stop-color="#AE8625"/>
<stop offset="0.337255" stop-color="#F7EF8A"/>
<stop offset="0.724949" stop-color="#D2AC47"/>
<stop offset="1" stop-color="#EDC967"/>
</linearGradient>
<linearGradient id="paint18_linear_350_158" x1="-215.463" y1="1377.3" x2="1585.22" y2="384.988" gradientUnits="userSpaceOnUse">
<stop stop-color="#AE8625"/>
<stop offset="0.337255" stop-color="#F7EF8A"/>
<stop offset="0.724949" stop-color="#D2AC47"/>
<stop offset="1" stop-color="#EDC967"/>
</linearGradient>
<linearGradient id="paint19_linear_350_158" x1="-217.455" y1="1373.69" x2="1583.23" y2="381.372" gradientUnits="userSpaceOnUse">
<stop stop-color="#AE8625"/>
<stop offset="0.337255" stop-color="#F7EF8A"/>
<stop offset="0.724949" stop-color="#D2AC47"/>
<stop offset="1" stop-color="#EDC967"/>
</linearGradient>
<linearGradient id="paint20_linear_350_158" x1="-219.455" y1="1370.06" x2="1581.22" y2="377.744" gradientUnits="userSpaceOnUse">
<stop stop-color="#AE8625"/>
<stop offset="0.337255" stop-color="#F7EF8A"/>
<stop offset="0.724949" stop-color="#D2AC47"/>
<stop offset="1" stop-color="#EDC967"/>
</linearGradient>
<linearGradient id="paint21_linear_350_158" x1="-220.11" y1="1368.87" x2="1580.57" y2="376.555" gradientUnits="userSpaceOnUse">
<stop stop-color="#AE8625"/>
<stop offset="0.337255" stop-color="#F7EF8A"/>
<stop offset="0.724949" stop-color="#D2AC47"/>
<stop offset="1" stop-color="#EDC967"/>
</linearGradient>
<linearGradient id="paint22_linear_350_158" x1="-218.966" y1="1370.95" x2="1581.71" y2="378.632" gradientUnits="userSpaceOnUse">
<stop stop-color="#AE8625"/>
<stop offset="0.337255" stop-color="#F7EF8A"/>
<stop offset="0.724949" stop-color="#D2AC47"/>
<stop offset="1" stop-color="#EDC967"/>
</linearGradient>
<linearGradient id="paint23_linear_350_158" x1="-217.778" y1="1373.1" x2="1582.9" y2="380.788" gradientUnits="userSpaceOnUse">
<stop stop-color="#AE8625"/>
<stop offset="0.337255" stop-color="#F7EF8A"/>
<stop offset="0.724949" stop-color="#D2AC47"/>
<stop offset="1" stop-color="#EDC967"/>
</linearGradient>
<linearGradient id="paint24_linear_350_158" x1="-216.544" y1="1375.34" x2="1584.14" y2="383.028" gradientUnits="userSpaceOnUse">
<stop stop-color="#AE8625"/>
<stop offset="0.337255" stop-color="#F7EF8A"/>
<stop offset="0.724949" stop-color="#D2AC47"/>
<stop offset="1" stop-color="#EDC967"/>
</linearGradient>
<linearGradient id="paint25_linear_350_158" x1="-215.315" y1="1377.57" x2="1585.37" y2="385.258" gradientUnits="userSpaceOnUse">
<stop stop-color="#AE8625"/>
<stop offset="0.337255" stop-color="#F7EF8A"/>
<stop offset="0.724949" stop-color="#D2AC47"/>
<stop offset="1" stop-color="#EDC967"/>
</linearGradient>
<linearGradient id="paint26_linear_350_158" x1="-214.011" y1="1379.94" x2="1586.67" y2="387.623" gradientUnits="userSpaceOnUse">
<stop stop-color="#AE8625"/>
<stop offset="0.337255" stop-color="#F7EF8A"/>
<stop offset="0.724949" stop-color="#D2AC47"/>
<stop offset="1" stop-color="#EDC967"/>
</linearGradient>
<linearGradient id="paint27_linear_350_158" x1="-212.747" y1="1382.23" x2="1587.93" y2="389.917" gradientUnits="userSpaceOnUse">
<stop stop-color="#AE8625"/>
<stop offset="0.337255" stop-color="#F7EF8A"/>
<stop offset="0.724949" stop-color="#D2AC47"/>
<stop offset="1" stop-color="#EDC967"/>
</linearGradient>
<linearGradient id="paint28_linear_350_158" x1="-211.488" y1="1384.52" x2="1589.19" y2="392.202" gradientUnits="userSpaceOnUse">
<stop stop-color="#AE8625"/>
<stop offset="0.337255" stop-color="#F7EF8A"/>
<stop offset="0.724949" stop-color="#D2AC47"/>
<stop offset="1" stop-color="#EDC967"/>
</linearGradient>
<linearGradient id="paint29_linear_350_158" x1="-210.209" y1="1386.84" x2="1590.47" y2="394.521" gradientUnits="userSpaceOnUse">
<stop stop-color="#AE8625"/>
<stop offset="0.337255" stop-color="#F7EF8A"/>
<stop offset="0.724949" stop-color="#D2AC47"/>
<stop offset="1" stop-color="#EDC967"/>
</linearGradient>
<linearGradient id="paint30_linear_350_158" x1="-208.933" y1="1389.15" x2="1591.75" y2="396.837" gradientUnits="userSpaceOnUse">
<stop stop-color="#AE8625"/>
<stop offset="0.337255" stop-color="#F7EF8A"/>
<stop offset="0.724949" stop-color="#D2AC47"/>
<stop offset="1" stop-color="#EDC967"/>
</linearGradient>
<linearGradient id="paint31_linear_350_158" x1="-207.661" y1="1391.46" x2="1593.02" y2="399.146" gradientUnits="userSpaceOnUse">
<stop stop-color="#AE8625"/>
<stop offset="0.337255" stop-color="#F7EF8A"/>
<stop offset="0.724949" stop-color="#D2AC47"/>
<stop offset="1" stop-color="#EDC967"/>
</linearGradient>
<linearGradient id="paint32_linear_350_158" x1="-265.219" y1="1287.02" x2="1535.46" y2="294.701" gradientUnits="userSpaceOnUse">
<stop stop-color="#AE8625"/>
<stop offset="0.337255" stop-color="#F7EF8A"/>
<stop offset="0.724949" stop-color="#D2AC47"/>
<stop offset="1" stop-color="#EDC967"/>
</linearGradient>
<linearGradient id="paint33_linear_350_158" x1="-262.666" y1="1291.65" x2="1538.01" y2="299.333" gradientUnits="userSpaceOnUse">
<stop stop-color="#AE8625"/>
<stop offset="0.337255" stop-color="#F7EF8A"/>
<stop offset="0.724949" stop-color="#D2AC47"/>
<stop offset="1" stop-color="#EDC967"/>
</linearGradient>
<linearGradient id="paint34_linear_350_158" x1="-260.155" y1="1296.2" x2="1540.52" y2="303.888" gradientUnits="userSpaceOnUse">
<stop stop-color="#AE8625"/>
<stop offset="0.337255" stop-color="#F7EF8A"/>
<stop offset="0.724949" stop-color="#D2AC47"/>
<stop offset="1" stop-color="#EDC967"/>
</linearGradient>
<linearGradient id="paint35_linear_350_158" x1="-257.622" y1="1300.8" x2="1543.06" y2="308.485" gradientUnits="userSpaceOnUse">
<stop stop-color="#AE8625"/>
<stop offset="0.337255" stop-color="#F7EF8A"/>
<stop offset="0.724949" stop-color="#D2AC47"/>
<stop offset="1" stop-color="#EDC967"/>
</linearGradient>
<linearGradient id="paint36_linear_350_158" x1="-255.098" y1="1305.38" x2="1545.58" y2="313.065" gradientUnits="userSpaceOnUse">
<stop stop-color="#AE8625"/>
<stop offset="0.337255" stop-color="#F7EF8A"/>
<stop offset="0.724949" stop-color="#D2AC47"/>
<stop offset="1" stop-color="#EDC967"/>
</linearGradient>
<linearGradient id="paint37_linear_350_158" x1="-252.586" y1="1309.94" x2="1548.09" y2="317.625" gradientUnits="userSpaceOnUse">
<stop stop-color="#AE8625"/>
<stop offset="0.337255" stop-color="#F7EF8A"/>
<stop offset="0.724949" stop-color="#D2AC47"/>
<stop offset="1" stop-color="#EDC967"/>
</linearGradient>
<linearGradient id="paint38_linear_350_158" x1="-250.083" y1="1314.48" x2="1550.6" y2="322.166" gradientUnits="userSpaceOnUse">
<stop stop-color="#AE8625"/>
<stop offset="0.337255" stop-color="#F7EF8A"/>
<stop offset="0.724949" stop-color="#D2AC47"/>
<stop offset="1" stop-color="#EDC967"/>
</linearGradient>
<linearGradient id="paint39_linear_350_158" x1="-247.623" y1="1318.95" x2="1553.06" y2="326.631" gradientUnits="userSpaceOnUse">
<stop stop-color="#AE8625"/>
<stop offset="0.337255" stop-color="#F7EF8A"/>
<stop offset="0.724949" stop-color="#D2AC47"/>
<stop offset="1" stop-color="#EDC967"/>
</linearGradient>
<linearGradient id="paint40_linear_350_158" x1="-245.149" y1="1323.43" x2="1555.53" y2="331.119" gradientUnits="userSpaceOnUse">
<stop stop-color="#AE8625"/>
<stop offset="0.337255" stop-color="#F7EF8A"/>
<stop offset="0.724949" stop-color="#D2AC47"/>
<stop offset="1" stop-color="#EDC967"/>
</linearGradient>
<linearGradient id="paint41_linear_350_158" x1="-242.691" y1="1327.89" x2="1557.99" y2="335.58" gradientUnits="userSpaceOnUse">
<stop stop-color="#AE8625"/>
<stop offset="0.337255" stop-color="#F7EF8A"/>
<stop offset="0.724949" stop-color="#D2AC47"/>
<stop offset="1" stop-color="#EDC967"/>
</linearGradient>
<linearGradient id="paint42_linear_350_158" x1="-240.256" y1="1332.31" x2="1560.42" y2="339.999" gradientUnits="userSpaceOnUse">
<stop stop-color="#AE8625"/>
<stop offset="0.337255" stop-color="#F7EF8A"/>
<stop offset="0.724949" stop-color="#D2AC47"/>
<stop offset="1" stop-color="#EDC967"/>
</linearGradient>
<linearGradient id="paint43_linear_350_158" x1="-237.843" y1="1336.69" x2="1562.84" y2="344.379" gradientUnits="userSpaceOnUse">
<stop stop-color="#AE8625"/>
<stop offset="0.337255" stop-color="#F7EF8A"/>
<stop offset="0.724949" stop-color="#D2AC47"/>
<stop offset="1" stop-color="#EDC967"/>
</linearGradient>
<linearGradient id="paint44_linear_350_158" x1="-235.46" y1="1341.01" x2="1565.22" y2="348.7" gradientUnits="userSpaceOnUse">
<stop stop-color="#AE8625"/>
<stop offset="0.337255" stop-color="#F7EF8A"/>
<stop offset="0.724949" stop-color="#D2AC47"/>
<stop offset="1" stop-color="#EDC967"/>
</linearGradient>
<linearGradient id="paint45_linear_350_158" x1="-233.112" y1="1345.28" x2="1567.57" y2="352.963" gradientUnits="userSpaceOnUse">
<stop stop-color="#AE8625"/>
<stop offset="0.337255" stop-color="#F7EF8A"/>
<stop offset="0.724949" stop-color="#D2AC47"/>
<stop offset="1" stop-color="#EDC967"/>
</linearGradient>
<linearGradient id="paint46_linear_350_158" x1="-230.812" y1="1349.45" x2="1569.87" y2="357.138" gradientUnits="userSpaceOnUse">
<stop stop-color="#AE8625"/>
<stop offset="0.337255" stop-color="#F7EF8A"/>
<stop offset="0.724949" stop-color="#D2AC47"/>
<stop offset="1" stop-color="#EDC967"/>
</linearGradient>
<linearGradient id="paint47_linear_350_158" x1="-228.596" y1="1353.47" x2="1572.08" y2="361.157" gradientUnits="userSpaceOnUse">
<stop stop-color="#AE8625"/>
<stop offset="0.337255" stop-color="#F7EF8A"/>
<stop offset="0.724949" stop-color="#D2AC47"/>
<stop offset="1" stop-color="#EDC967"/>
</linearGradient>
<linearGradient id="paint48_linear_350_158" x1="-225.15" y1="1359.72" x2="1575.53" y2="367.41" gradientUnits="userSpaceOnUse">
<stop stop-color="#AE8625"/>
<stop offset="0.337255" stop-color="#F7EF8A"/>
<stop offset="0.724949" stop-color="#D2AC47"/>
<stop offset="1" stop-color="#EDC967"/>
</linearGradient>
<linearGradient id="paint49_linear_350_158" x1="-218.084" y1="1372.55" x2="1582.6" y2="380.233" gradientUnits="userSpaceOnUse">
<stop stop-color="#AE8625"/>
<stop offset="0.337255" stop-color="#F7EF8A"/>
<stop offset="0.724949" stop-color="#D2AC47"/>
<stop offset="1" stop-color="#EDC967"/>
</linearGradient>
<linearGradient id="paint50_linear_350_158" x1="-211.135" y1="1385.16" x2="1589.54" y2="392.841" gradientUnits="userSpaceOnUse">
<stop stop-color="#AE8625"/>
<stop offset="0.337255" stop-color="#F7EF8A"/>
<stop offset="0.724949" stop-color="#D2AC47"/>
<stop offset="1" stop-color="#EDC967"/>
</linearGradient>
<linearGradient id="paint51_linear_350_158" x1="-204.408" y1="1397.36" x2="1596.27" y2="405.049" gradientUnits="userSpaceOnUse">
<stop stop-color="#AE8625"/>
<stop offset="0.337255" stop-color="#F7EF8A"/>
<stop offset="0.724949" stop-color="#D2AC47"/>
<stop offset="1" stop-color="#EDC967"/>
</linearGradient>
<linearGradient id="paint52_linear_350_158" x1="-197.945" y1="1409.09" x2="1602.73" y2="416.777" gradientUnits="userSpaceOnUse">
<stop stop-color="#AE8625"/>
<stop offset="0.337255" stop-color="#F7EF8A"/>
<stop offset="0.724949" stop-color="#D2AC47"/>
<stop offset="1" stop-color="#EDC967"/>
</linearGradient>
<linearGradient id="paint53_linear_350_158" x1="-192.63" y1="1418.74" x2="1608.05" y2="426.421" gradientUnits="userSpaceOnUse">
<stop stop-color="#AE8625"/>
<stop offset="0.337255" stop-color="#F7EF8A"/>
<stop offset="0.724949" stop-color="#D2AC47"/>
<stop offset="1" stop-color="#EDC967"/>
</linearGradient>
<linearGradient id="paint54_linear_350_158" x1="-191.897" y1="1420.07" x2="1608.78" y2="427.751" gradientUnits="userSpaceOnUse">
<stop stop-color="#AE8625"/>
<stop offset="0.337255" stop-color="#F7EF8A"/>
<stop offset="0.724949" stop-color="#D2AC47"/>
<stop offset="1" stop-color="#EDC967"/>
</linearGradient>
<linearGradient id="paint55_linear_350_158" x1="-191.26" y1="1421.22" x2="1609.42" y2="428.909" gradientUnits="userSpaceOnUse">
<stop stop-color="#AE8625"/>
<stop offset="0.337255" stop-color="#F7EF8A"/>
<stop offset="0.724949" stop-color="#D2AC47"/>
<stop offset="1" stop-color="#EDC967"/>
</linearGradient>
<linearGradient id="paint56_linear_350_158" x1="-190.594" y1="1422.43" x2="1610.09" y2="430.116" gradientUnits="userSpaceOnUse">
<stop stop-color="#AE8625"/>
<stop offset="0.337255" stop-color="#F7EF8A"/>
<stop offset="0.724949" stop-color="#D2AC47"/>
<stop offset="1" stop-color="#EDC967"/>
</linearGradient>
<linearGradient id="paint57_linear_350_158" x1="-189.939" y1="1423.62" x2="1610.74" y2="431.305" gradientUnits="userSpaceOnUse">
<stop stop-color="#AE8625"/>
<stop offset="0.337255" stop-color="#F7EF8A"/>
<stop offset="0.724949" stop-color="#D2AC47"/>
<stop offset="1" stop-color="#EDC967"/>
</linearGradient>
<linearGradient id="paint58_linear_350_158" x1="-189.353" y1="1424.68" x2="1611.33" y2="432.369" gradientUnits="userSpaceOnUse">
<stop stop-color="#AE8625"/>
<stop offset="0.337255" stop-color="#F7EF8A"/>
<stop offset="0.724949" stop-color="#D2AC47"/>
<stop offset="1" stop-color="#EDC967"/>
</linearGradient>
<linearGradient id="paint59_linear_350_158" x1="-188.777" y1="1425.73" x2="1611.9" y2="433.415" gradientUnits="userSpaceOnUse">
<stop stop-color="#AE8625"/>
<stop offset="0.337255" stop-color="#F7EF8A"/>
<stop offset="0.724949" stop-color="#D2AC47"/>
<stop offset="1" stop-color="#EDC967"/>
</linearGradient>
<linearGradient id="paint60_linear_350_158" x1="-188.194" y1="1426.79" x2="1612.49" y2="434.473" gradientUnits="userSpaceOnUse">
<stop stop-color="#AE8625"/>
<stop offset="0.337255" stop-color="#F7EF8A"/>
<stop offset="0.724949" stop-color="#D2AC47"/>
<stop offset="1" stop-color="#EDC967"/>
</linearGradient>
<linearGradient id="paint61_linear_350_158" x1="-187.652" y1="1427.77" x2="1613.03" y2="435.456" gradientUnits="userSpaceOnUse">
<stop stop-color="#AE8625"/>
<stop offset="0.337255" stop-color="#F7EF8A"/>
<stop offset="0.724949" stop-color="#D2AC47"/>
<stop offset="1" stop-color="#EDC967"/>
</linearGradient>
<linearGradient id="paint62_linear_350_158" x1="-187.082" y1="1428.8" x2="1613.6" y2="436.49" gradientUnits="userSpaceOnUse">
<stop stop-color="#AE8625"/>
<stop offset="0.337255" stop-color="#F7EF8A"/>
<stop offset="0.724949" stop-color="#D2AC47"/>
<stop offset="1" stop-color="#EDC967"/>
</linearGradient>
<linearGradient id="paint63_linear_350_158" x1="-186.574" y1="1429.73" x2="1614.11" y2="437.412" gradientUnits="userSpaceOnUse">
<stop stop-color="#AE8625"/>
<stop offset="0.337255" stop-color="#F7EF8A"/>
<stop offset="0.724949" stop-color="#D2AC47"/>
<stop offset="1" stop-color="#EDC967"/>
</linearGradient>
</defs>
</svg>
