<svg width="26" height="26" viewBox="0 0 26 26" fill="none" xmlns="http://www.w3.org/2000/svg">
<path fill-rule="evenodd" clip-rule="evenodd" d="M11.956 0.0166454C10.4423 0.175085 8.86765 0.571378 7.82242 1.05693L7.52606 1.19462L7.739 1.2276C7.85607 1.24573 8.27722 1.29868 8.67485 1.34528C9.27857 1.41602 9.41388 1.44922 9.49513 1.54654C9.54868 1.61066 9.59245 1.69425 9.59245 1.73228C9.59245 1.77038 9.48178 2.0545 9.34653 2.36376C8.97154 3.22125 8.95135 3.16436 9.55569 2.95381C10.749 2.53805 12.0873 2.33951 13.3463 2.39151C15.9671 2.49973 18.4035 3.5151 20.2257 5.25849C20.654 5.66824 20.7705 5.81211 20.7705 5.93112C20.7705 6.12187 20.6966 6.18555 20.0528 6.54942C19.6718 6.76475 19.551 6.85812 19.6079 6.89327C19.6509 6.91985 20.637 7.35135 21.7993 7.85219C23.6185 8.63605 23.9178 8.74972 23.9497 8.66864C23.9972 8.54807 24.5132 4.11811 24.4878 4.04898C24.4773 4.02045 24.1936 4.15737 23.8574 4.35329C23.5212 4.54916 23.2031 4.70943 23.1504 4.70943C23.0978 4.70943 22.7473 4.39372 22.3714 4.00783C20.2644 1.84451 17.8245 0.579775 14.8756 0.122476C14.3153 0.0356092 12.4283 -0.0328495 11.956 0.0166454ZM4.07549 1.66466C4.43341 2.2586 4.69857 2.75833 4.69857 2.83902C4.69857 2.89013 4.38264 3.23804 3.99658 3.61215C1.78632 5.75366 0.518807 8.25455 0.0721847 11.3551C-0.0359812 12.1057 -0.0196311 14.0441 0.101437 14.8309C0.273779 15.9509 0.647271 17.2716 1.04495 18.1673L1.18065 18.4728L1.21518 18.2507C1.2342 18.1285 1.28781 17.7032 1.33442 17.3056C1.40516 16.7019 1.43836 16.5666 1.53568 16.4853C1.5998 16.4318 1.68338 16.388 1.72142 16.388C1.75952 16.388 2.04364 16.4987 2.3529 16.6339C3.21038 17.0089 3.15349 17.0291 2.94295 16.4248C1.80517 13.1592 2.38126 9.49615 4.47973 6.65341C4.99837 5.95081 5.73941 5.20994 5.92348 5.20994C6.11084 5.20994 6.17569 5.28563 6.53856 5.92762C6.75366 6.30828 6.84726 6.42941 6.8823 6.37252C6.90882 6.32953 7.34037 5.34341 7.84139 4.18111C8.62774 2.35687 8.73941 2.06262 8.65794 2.02975C8.56835 1.99355 4.28264 1.48381 4.06837 1.48386C3.97111 1.48392 3.97144 1.49204 4.07549 1.66466ZM12.0536 5.7075C11.408 5.81005 11.4111 5.80666 11.3475 6.49531L11.3084 6.91874L11.076 6.98742C10.9483 7.02518 10.6265 7.15654 10.361 7.27933L9.87835 7.50256L9.47944 7.19041C9.26005 7.01879 9.0499 6.87831 9.01236 6.87831C8.66912 6.87831 6.86745 8.67998 6.86745 9.02322C6.86745 9.06076 7.00792 9.27092 7.17954 9.49031L7.4917 9.88921L7.26847 10.3719C7.14568 10.6374 7.01465 10.9579 6.97734 11.0842L6.90949 11.3138L6.40559 11.3701C5.82233 11.4352 5.78323 11.467 5.71672 11.9314C5.65871 12.336 5.65871 13.6553 5.71672 14.06C5.78323 14.5243 5.82233 14.5561 6.40559 14.6213L6.90949 14.6775L6.97734 14.9071C7.01465 15.0334 7.14623 15.3552 7.26969 15.6222L7.4942 16.1076L7.33376 16.3098C6.90504 16.85 6.85621 16.9323 6.89392 17.0512C7.03795 17.505 8.69014 19.113 9.01236 19.113C9.0499 19.113 9.26005 18.9725 9.47944 18.8009L9.87835 18.4888L10.361 18.712C10.6265 18.8348 10.9471 18.9658 11.0733 19.0031L11.303 19.071L11.3592 19.5749C11.4243 20.1581 11.4562 20.1972 11.9205 20.2637C12.3252 20.3217 13.6444 20.3217 14.0491 20.2637C14.5134 20.1972 14.5453 20.1581 14.6104 19.5749L14.6666 19.071L14.8962 19.0031C15.0225 18.9658 15.3431 18.8348 15.6086 18.712L16.0912 18.4888L16.4902 18.8009C16.7095 18.9725 16.9197 19.113 16.9572 19.113C17.3005 19.113 19.1021 17.3113 19.1021 16.9681C19.1021 16.9306 18.9617 16.7204 18.7901 16.501L18.4779 16.1021L18.7011 15.6194C18.8239 15.354 18.9549 15.0334 18.9923 14.9071L19.0601 14.6775L19.564 14.6213C20.1473 14.5561 20.1864 14.5243 20.2529 14.06C20.3109 13.6553 20.3109 12.336 20.2529 11.9314C20.1862 11.4662 20.1479 11.4353 19.5574 11.3693L19.0468 11.3123L18.9859 11.0835C18.9523 10.9576 18.8243 10.6374 18.7014 10.3719L18.4779 9.88921L18.7901 9.49031C18.9617 9.27092 19.1021 9.06076 19.1021 9.02322C19.1021 8.67998 17.3005 6.87831 16.9572 6.87831C16.9197 6.87831 16.7095 7.01879 16.4902 7.19041L16.0912 7.50256L15.6086 7.27905C15.3431 7.15615 15.0229 7.02813 14.897 6.9946L14.6681 6.93364L14.6118 6.42891C14.5808 6.15129 14.5304 5.89914 14.4998 5.86856C14.4693 5.83803 14.3474 5.78887 14.229 5.75934C13.9365 5.68643 12.4146 5.65011 12.0536 5.7075ZM24.7544 7.74063C24.7354 7.86281 24.6818 8.28808 24.6352 8.68571C24.5644 9.28944 24.5312 9.42474 24.4339 9.50599C24.3698 9.55954 24.2837 9.60331 24.2424 9.60331C24.2011 9.60331 23.88 9.47818 23.5287 9.32525C23.1775 9.17232 22.8801 9.04719 22.8679 9.04719C22.8556 9.04719 22.9273 9.28137 23.027 9.56766C24.0319 12.452 23.6995 15.703 22.1262 18.3763C21.477 19.4794 20.352 20.7814 20.0482 20.7814C19.8586 20.7814 19.7945 20.7068 19.431 20.0637C19.2159 19.683 19.1223 19.5619 19.0873 19.6188C19.0608 19.6618 18.6292 20.6479 18.1282 21.8102C17.3431 23.6315 17.2303 23.9286 17.3117 23.9607C17.4328 24.0086 21.8608 24.5246 21.9303 24.4989C21.959 24.4883 21.823 24.2043 21.6279 23.8679C21.4329 23.5314 21.2729 23.2132 21.2722 23.1609C21.2715 23.1085 21.5867 22.7581 21.9726 22.3823C23.1808 21.2055 23.9174 20.2051 24.6328 18.7691C26.1551 15.7137 26.4069 12.171 25.3317 8.93596C25.1843 8.49246 25.0019 7.99211 24.9264 7.82405L24.7889 7.51852L24.7544 7.74063ZM12.6233 9.69869C11.1077 9.90829 9.97206 10.9983 9.72158 12.4839C9.64356 12.9463 9.64356 13.045 9.72158 13.5074C10.1718 16.1773 13.4097 17.2383 15.3097 15.3384C15.9624 14.6856 16.2849 13.911 16.2849 12.9957C16.2849 12.0803 15.9624 11.3057 15.3097 10.6529C14.6127 9.956 13.5339 9.57272 12.6233 9.69869ZM12.8736 10.421C12.7296 10.4715 12.6511 10.618 12.6511 10.8358C12.6511 11.0351 12.6366 11.0524 12.3735 11.1656C11.6822 11.463 11.4129 12.219 11.7922 12.7978C11.924 12.9991 12.3642 13.2031 12.931 13.3258C13.3051 13.4067 13.4856 13.4738 13.5548 13.5575C13.6881 13.7188 13.6769 13.8658 13.5193 14.0233C13.2805 14.2621 12.7534 14.2759 12.4673 14.0508C12.2061 13.8454 11.9163 13.9423 11.8361 14.2617C11.8052 14.3847 11.8355 14.4398 12.0278 14.6105C12.1534 14.7219 12.3388 14.8368 12.4397 14.8656C12.6081 14.9138 12.6259 14.9405 12.6545 15.1873C12.6867 15.466 12.8026 15.6094 12.9954 15.6094C13.1709 15.6094 13.3185 15.407 13.3185 15.1661C13.3185 14.9541 13.3296 14.9404 13.5961 14.8257C14.1484 14.5882 14.431 14.0958 14.3178 13.5683C14.2126 13.0775 13.907 12.8636 13.0265 12.6643C12.4701 12.5384 12.3174 12.4389 12.3174 12.2022C12.3174 12.0487 12.5583 11.8398 12.7839 11.7975C13.0761 11.7427 13.3338 11.8079 13.5717 11.997C13.7159 12.1116 13.8172 12.1529 13.8973 12.1298C14.0527 12.085 14.2083 11.8981 14.2083 11.7565C14.2083 11.6019 13.7749 11.1958 13.5376 11.1279C13.3613 11.0775 13.3439 11.0526 13.316 10.8112C13.2993 10.6671 13.2617 10.5269 13.2325 10.4996C13.1556 10.4277 12.9702 10.3872 12.8736 10.421ZM2.00516 17.347C1.95193 17.6006 1.46305 21.8913 1.48168 21.9415C1.49224 21.97 1.77614 21.8338 2.1126 21.6388C2.44905 21.4438 2.76688 21.2837 2.81887 21.2831C2.87087 21.2824 3.24303 21.6187 3.64583 22.0304C4.76464 23.1738 5.79213 23.9353 7.1177 24.6033C9.73192 25.9209 12.6052 26.3134 15.5152 25.7504C16.2353 25.6111 17.5752 25.1986 18.1564 24.9372L18.4619 24.7998L18.2398 24.7647C18.1176 24.7454 17.6924 24.6914 17.2947 24.6447C16.6936 24.5741 16.5554 24.5403 16.4745 24.444C16.4209 24.3803 16.3771 24.294 16.3771 24.2521C16.3771 24.2103 16.4874 23.9273 16.6222 23.6232C16.9997 22.7719 17.0192 22.8266 16.4139 23.0375C13.145 24.1764 9.42717 23.5833 6.6118 21.4739C5.85708 20.9084 5.19908 20.2484 5.19908 20.057C5.19908 19.8726 5.26759 19.8138 5.91081 19.4468C6.19521 19.2845 6.40792 19.1334 6.38351 19.1111C6.34942 19.08 3.28641 17.7482 2.21103 17.297C2.04114 17.2257 2.03001 17.2284 2.00516 17.347Z" fill="url(#paint0_linear_197_2446)"/>
<defs>
<linearGradient id="paint0_linear_197_2446" x1="0" y1="13" x2="25.9889" y2="13" gradientUnits="userSpaceOnUse">
<stop stop-color="#AE8625"/>
<stop offset="0.337255" stop-color="#F7EF8A"/>
<stop offset="0.724949" stop-color="#D2AC47"/>
<stop offset="1" stop-color="#EDC967"/>
</linearGradient>
</defs>
</svg>
