<svg width="27" height="26" viewBox="0 0 27 26" fill="none" xmlns="http://www.w3.org/2000/svg">
<path fill-rule="evenodd" clip-rule="evenodd" d="M10.7973 0.139648C10.7824 0.21648 10.734 0.587793 10.69 0.964844C10.6458 1.34189 10.6 1.69609 10.5881 1.75195C10.5707 1.83412 10.4622 1.88073 10.0208 1.9958C9.12133 2.23021 7.9592 2.72472 7.08175 3.24639L6.82561 3.39864L6.54855 3.18292C6.39615 3.06429 6.07572 2.81511 5.83649 2.62925L5.40145 2.2913L3.84688 3.84973L2.29227 5.4082L2.84517 6.11736L3.39808 6.82657L3.24421 7.08221C2.73081 7.93518 2.1093 9.43962 1.92659 10.2716C1.85209 10.611 1.93025 10.577 0.964844 10.69C0.587793 10.734 0.21643 10.7824 0.139648 10.7973L0 10.8245V13V15.1755L0.139648 15.2027C0.21643 15.2176 0.587793 15.266 0.964844 15.31C1.93025 15.423 1.85209 15.389 1.92659 15.7284C2.1093 16.5604 2.73081 18.0648 3.24421 18.9178L3.39808 19.1734L2.84517 19.8826L2.29227 20.5918L3.84688 22.1503L5.40145 23.7087L5.83649 23.3708C6.07572 23.1849 6.39615 22.9357 6.54855 22.8171L6.82561 22.6014L7.08175 22.7555C7.88775 23.2408 9.23391 23.8086 10.095 24.0266C10.473 24.1223 10.5711 24.1662 10.5883 24.2478C10.6001 24.3038 10.6458 24.6581 10.69 25.0352C10.734 25.4122 10.7824 25.7836 10.7973 25.8604L10.8245 26H13H15.1755L15.2027 25.8604C15.2176 25.7836 15.266 25.4122 15.31 25.0352C15.423 24.0698 15.389 24.1479 15.7284 24.0734C16.5604 23.8907 18.0648 23.2692 18.9178 22.7557L19.1735 22.6019L19.5779 22.9118C19.8004 23.0823 20.1211 23.3313 20.2905 23.4652L20.5985 23.7087L22.1531 22.1503L23.7077 20.5918L23.1548 19.8826L22.6019 19.1734L22.7539 18.9178C23.2752 18.0409 23.7698 16.8785 24.0042 15.9792C24.1196 15.5367 24.1657 15.4295 24.248 15.4128C24.3039 15.4014 24.681 15.3536 25.0859 15.3064C25.4909 15.2593 25.8737 15.2015 25.9365 15.178L26.0508 15.1354V12.9475C26.0508 11.7442 26.0337 10.7698 26.0127 10.7823C25.9715 10.8069 24.1787 10.5894 24.1542 10.5569C24.146 10.546 24.0764 10.2972 23.9994 10.0039C23.7649 9.11056 23.271 7.95199 22.7539 7.08221L22.6019 6.82657L23.1548 6.11736L23.7077 5.4082L22.1539 3.85054L20.6002 2.29293L20.1644 2.63077C19.9246 2.81663 19.6038 3.06541 19.4515 3.18368L19.1744 3.39864L18.9183 3.24452C18.0794 2.73965 16.6614 2.14617 15.8296 1.95193C15.3738 1.84544 15.4243 1.94142 15.31 0.964844C15.266 0.587793 15.2176 0.21648 15.2027 0.139648L15.1755 0H13H10.8245L10.7973 0.139648ZM12.0352 4.67645C9.44221 5.01023 7.23252 6.4254 5.8564 8.63352C4.6443 10.5785 4.30554 13.0776 4.95168 15.3074C6.07623 19.188 9.8408 21.7428 13.8283 21.3313C17.5873 20.9435 20.5589 18.1754 21.2602 14.4085C21.3812 13.7588 21.3812 12.2412 21.2602 11.5915C20.6477 8.30172 18.3155 5.75834 15.1243 4.90019C14.2031 4.65243 12.9351 4.56061 12.0352 4.67645ZM12.2891 6.17566C10.679 6.37386 9.31684 7.03422 8.16872 8.17309C7.17168 9.16211 6.5588 10.3056 6.26209 11.7305C6.13681 12.3319 6.13717 13.6736 6.26275 14.2632C6.57414 15.7254 7.16016 16.8198 8.17106 17.8269C9.18851 18.8406 10.2852 19.4281 11.7368 19.7372C12.3288 19.8633 13.6712 19.8633 14.2632 19.7372C15.726 19.4257 16.8321 18.8342 17.8269 17.8313C18.8468 16.8031 19.4272 15.719 19.7372 14.2632C19.8633 13.6712 19.8633 12.3288 19.7372 11.7368C19.423 10.261 18.843 9.18587 17.8022 8.14937C16.7944 7.14589 15.7182 6.56962 14.2949 6.27153C13.9021 6.18922 12.6607 6.12991 12.2891 6.17566ZM13.8507 11.819L12.2387 13.431L11.3874 12.5807C10.9191 12.1131 10.513 11.7305 10.4849 11.7305C10.4187 11.7305 9.44531 12.7065 9.44531 12.7728C9.44531 12.8004 10.0738 13.4511 10.8418 14.2188L12.2384 15.6147L14.3965 13.457C15.5835 12.2702 16.5547 11.2759 16.5547 11.2473C16.5547 11.1809 15.5792 10.207 15.5127 10.207C15.4852 10.207 14.7373 10.9324 13.8507 11.819ZM0.0233086 13C0.0233086 14.2149 0.0299102 14.712 0.0380352 14.1045C0.0461094 13.497 0.0461094 12.503 0.0380352 11.8955C0.0299102 11.2881 0.0233086 11.7851 0.0233086 13Z" fill="url(#paint0_linear_197_2457)"/>
<defs>
<linearGradient id="paint0_linear_197_2457" x1="0" y1="13" x2="26.0508" y2="13" gradientUnits="userSpaceOnUse">
<stop stop-color="#AE8625"/>
<stop offset="0.337255" stop-color="#F7EF8A"/>
<stop offset="0.724949" stop-color="#D2AC47"/>
<stop offset="1" stop-color="#EDC967"/>
</linearGradient>
</defs>
</svg>
