<svg width="26" height="26" viewBox="0 0 26 26" fill="none" xmlns="http://www.w3.org/2000/svg">
<path fill-rule="evenodd" clip-rule="evenodd" d="M19.9987 0.0374701C19.4942 0.113579 18.6702 0.401225 18.2174 0.659184C16.9343 1.39042 16.0745 2.51213 15.6669 3.98647C15.5941 4.25004 15.5726 4.53748 15.5728 5.24561C15.573 6.04021 15.5895 6.22034 15.6962 6.58938C16.1265 8.07765 17.1332 9.28761 18.4873 9.94382C19.2138 10.2958 19.6606 10.406 20.4999 10.4398C21.3008 10.472 21.8186 10.4095 22.4062 10.2097C24.1323 9.6226 25.3775 8.2765 25.8657 6.46955C26.0322 5.85377 26.0322 4.66967 25.8657 4.00736C25.7346 3.48551 25.3781 2.68162 25.0959 2.27139C24.8323 1.88831 24.198 1.24095 23.8313 0.980891C23.3359 0.629443 22.6516 0.309517 22.0803 0.16232C21.5006 0.0129103 20.5423 -0.0445219 19.9987 0.0374701ZM10.4226 1.93948C9.84471 3.44616 9.75527 3.65327 9.68218 3.65327C9.45191 3.65327 8.15451 4.14258 7.47617 4.48528L6.69808 4.87834L5.74705 4.45473C5.22401 4.22176 4.77939 4.03111 4.75904 4.03111C4.73875 4.03111 4.20205 4.55156 3.56646 5.18769L2.41086 6.34421L2.84608 7.31716L3.2813 8.29011L2.89223 9.06193C2.54747 9.74583 2.05115 11.0548 2.05115 11.2803C2.05115 11.3584 1.87286 11.4358 0.33736 12.0248L0 12.1542V13.8011V15.4479L0.33736 15.5774C1.87286 16.1663 2.05115 16.2438 2.05115 16.3219C2.05115 16.547 2.54726 17.8559 2.8912 18.5381L3.27925 19.3079L2.84322 20.2814L2.40724 21.2549L3.57526 22.4229L4.74323 23.5909L5.7206 23.1573L6.69797 22.7237L7.46478 23.1106C8.08412 23.4231 9.02198 23.78 9.74296 23.9776C9.77265 23.9857 9.96697 24.4441 10.1748 24.9961L10.5526 25.9999L12.2015 25.9999L13.8503 26L14.2459 24.9744C14.5337 24.228 14.6653 23.9486 14.7291 23.9481C14.9642 23.9463 16.3492 23.4185 16.9841 23.0888L17.6971 22.7185L18.6776 23.153L19.6581 23.5875L20.8234 22.4221L21.9887 21.2568L21.556 20.2714L21.1233 19.286L21.4901 18.5796C21.8174 17.9494 22.3442 16.5648 22.346 16.3301C22.3467 16.2427 22.5102 16.1707 23.9256 15.6347L24.3979 15.4558V13.8002V12.1446L23.3723 11.7513C22.5468 11.4347 22.3467 11.3383 22.3467 11.2571C22.3467 11.2016 22.3406 11.1562 22.3332 11.1562C22.3258 11.1562 22.1254 11.1943 21.8879 11.2408C21.6274 11.292 21.1655 11.326 20.7236 11.3266L19.9911 11.3275L20.1108 11.7758C20.3098 12.5208 20.3664 13.1128 20.3338 14.1067C20.3014 15.0963 20.2296 15.514 19.9445 16.3728C19.5195 17.6526 18.8235 18.7387 17.8048 19.7116C16.7025 20.7645 15.3968 21.4564 13.8658 21.7992C13.3772 21.9087 13.1639 21.9245 12.1989 21.9231C11.2582 21.9218 11.0128 21.9037 10.5614 21.8025C8.89956 21.4298 7.62882 20.7351 6.44687 19.5531C5.4879 18.5942 4.84535 17.5677 4.45359 16.3687C4.12675 15.3684 4.07596 15.0235 4.07563 13.8011C4.07536 12.8391 4.09172 12.6213 4.20075 12.1342C4.54357 10.6032 5.2355 9.29755 6.28839 8.19516C7.26128 7.17655 8.34742 6.48051 9.62723 6.05554C10.486 5.77043 10.9037 5.69864 11.8933 5.6662C12.8872 5.6336 13.4792 5.69022 14.224 5.88913L14.6721 6.0088L14.6725 5.27632C14.6727 4.8275 14.706 4.37668 14.7583 4.11208C14.8054 3.87458 14.8438 3.67421 14.8438 3.66676C14.8438 3.65931 14.7984 3.65327 14.7429 3.65327C14.6617 3.65327 14.5653 3.45323 14.2487 2.62769L13.8554 1.60212H12.2037H10.5521L10.4226 1.93948ZM22.8595 2.95955C22.8001 2.99183 22.151 3.61581 21.4169 4.34618L20.0822 5.67414L19.4448 5.04465C18.8008 4.40858 18.6414 4.301 18.3427 4.301C18.1255 4.301 17.7982 4.48938 17.6863 4.67879C17.5838 4.85227 17.5684 5.2238 17.6565 5.39761C17.6893 5.46244 18.1569 5.95935 18.6955 6.50177C19.7607 7.57458 19.8786 7.65193 20.2826 7.54317C20.5702 7.46571 23.8107 4.21723 23.9106 3.90615C24.0751 3.39412 23.7092 2.89494 23.1726 2.8992C23.0598 2.90012 22.9189 2.92727 22.8595 2.95955ZM11.5126 7.81456C11.4171 7.87572 11.2896 8.0057 11.2292 8.10345C11.0889 8.33037 11.0887 8.5431 11.2255 12.1928C11.3397 15.2433 11.331 15.1801 11.6771 15.4441C12.006 15.695 12.4372 15.6928 12.739 15.4388C13.0754 15.1558 13.0685 15.206 13.176 12.2647C13.3184 8.36724 13.3185 8.34684 13.1904 8.12753C12.992 7.78779 12.7918 7.70148 12.2044 7.70251C11.7744 7.70326 11.6566 7.72232 11.5126 7.81456ZM11.9722 17.6849C11.4961 17.7771 11.0654 18.2969 11.0654 18.7793C11.0654 19.1936 11.3269 19.5931 11.7357 19.8032C12.0448 19.9622 12.5412 19.9233 12.8392 19.7168C13.0976 19.5377 13.3325 19.11 13.3325 18.8184C13.3325 18.0883 12.6831 17.5472 11.9722 17.6849Z" fill="url(#paint0_linear_197_2462)"/>
<defs>
<linearGradient id="paint0_linear_197_2462" x1="0" y1="13" x2="25.9906" y2="13" gradientUnits="userSpaceOnUse">
<stop stop-color="#AE8625"/>
<stop offset="0.337255" stop-color="#F7EF8A"/>
<stop offset="0.724949" stop-color="#D2AC47"/>
<stop offset="1" stop-color="#EDC967"/>
</linearGradient>
</defs>
</svg>
