<svg width="27" height="26" viewBox="0 0 27 26" fill="none" xmlns="http://www.w3.org/2000/svg">
<path fill-rule="evenodd" clip-rule="evenodd" d="M12.6266 0.0678464C12.3762 0.15711 12.1499 0.369827 12.0301 0.628472C11.9533 0.794399 11.9358 0.958802 11.9349 1.52441L11.9338 2.21712L11.6417 2.25182C10.697 2.36405 9.5156 2.69595 8.59299 3.10828C6.57347 4.01087 4.81676 5.57615 3.67884 7.48695C2.96941 8.67821 2.46421 10.1142 2.27984 11.4633L2.21573 11.9324L1.52438 11.9336C0.734021 11.9348 0.537256 11.9926 0.263827 12.3041C-0.0879423 12.7047 -0.0879423 13.2939 0.263827 13.6945C0.537256 14.006 0.734021 14.0638 1.52438 14.0651L2.21573 14.0662L2.27979 14.5362C2.79708 18.3306 5.41798 21.6424 9.03926 23.0776C9.71709 23.3463 10.788 23.6305 11.4638 23.7212L11.9338 23.7843L11.9349 24.4756C11.9362 25.266 11.994 25.4627 12.3055 25.7362C12.7061 26.0879 13.2953 26.0879 13.6959 25.7362C14.0074 25.4627 14.0652 25.266 14.0664 24.4756L14.0676 23.7843L14.5375 23.7202C18.3349 23.2025 21.6437 20.5841 23.0791 16.9607C23.3477 16.2827 23.6319 15.2118 23.7226 14.5362L23.7856 14.0662L24.477 14.0651C25.0356 14.0642 25.2074 14.0462 25.372 13.9715C25.6192 13.8591 25.8984 13.553 25.9391 13.3497C25.9555 13.2676 25.9888 13.1881 26.0131 13.1731C26.0375 13.158 26.0574 13.0543 26.0574 12.9425C26.0574 12.8308 26.0373 12.7517 26.0128 12.7669C25.9882 12.782 25.9549 12.7281 25.9387 12.647C25.8983 12.4454 25.6183 12.1391 25.372 12.0272C25.2074 11.9525 25.0356 11.9345 24.477 11.9336L23.7856 11.9324L23.7223 11.4625C23.2438 7.91147 20.8534 4.70171 17.5432 3.16534C16.6053 2.73004 15.3416 2.36598 14.3851 2.25548L14.0676 2.21885L14.0664 1.52527C14.0652 0.732469 14.0076 0.53611 13.6959 0.262478C13.4 0.00271523 13.009 -0.0684616 12.6266 0.0678464ZM11.2417 4.518C8.67728 5.05683 6.4429 6.77132 5.27324 9.0977C4.86934 9.90097 4.54973 10.8905 4.43857 11.6818L4.40601 11.9137L4.60089 11.9731C5.10909 12.1279 5.39694 12.4991 5.39694 12.9993C5.39694 13.4993 5.10904 13.8707 4.60175 14.0253L4.40773 14.0844L4.44197 14.342C4.46087 14.4837 4.54089 14.8523 4.61984 15.1611C5.23869 17.5814 6.9072 19.6317 9.18522 20.7713C9.89231 21.125 10.9436 21.4575 11.6831 21.5614L11.9151 21.594L11.9745 21.3991C12.1293 20.8909 12.5004 20.6031 13.0007 20.6031C13.5006 20.6031 13.8721 20.891 14.0266 21.3982L14.0858 21.5923L14.3434 21.558C14.4851 21.5391 14.8537 21.4591 15.1624 21.3802C17.8489 20.6932 20.0361 18.748 21.0818 16.1156C21.2531 15.6844 21.5054 14.7472 21.5594 14.342L21.5936 14.0844L21.3996 14.0253C20.8923 13.8707 20.6044 13.4993 20.6044 12.9993C20.6044 12.5039 20.8909 12.1244 21.3742 11.9799L21.5936 11.9142L21.5594 11.6566C21.5055 11.2517 21.2531 10.3144 21.0822 9.8839C20.2792 7.8625 18.7927 6.22238 16.9023 5.27189C16.099 4.86799 15.1095 4.54838 14.3182 4.43722L14.0863 4.40466L14.0269 4.59954C13.8721 5.10774 13.5009 5.39559 13.0007 5.39559C12.5021 5.39559 12.1293 5.10758 11.9757 4.60391C11.9075 4.38007 11.9015 4.37935 11.2417 4.518ZM12.3832 7.6129C11.4991 7.72441 10.4229 8.15584 9.7492 8.66881C8.53503 9.5934 7.78012 10.9465 7.60952 12.504C7.54647 13.0794 7.60348 13.7567 7.76879 14.3964C7.90236 14.9133 8.34481 15.8235 8.67017 16.2508C10.1442 18.1864 12.7284 18.925 14.9491 18.0454C16.8921 17.2758 18.1614 15.598 18.3918 13.4947C18.495 12.553 18.3106 11.5714 17.8551 10.6369C17.5353 9.98099 17.2219 9.5522 16.704 9.06199C15.9552 8.35332 15.095 7.90299 14.0917 7.69449C13.6278 7.59801 12.8105 7.55899 12.3832 7.6129ZM0.00858592 12.9993C0.00858592 13.1251 0.0184928 13.1765 0.030635 13.1136C0.0427264 13.0507 0.0427264 12.9479 0.030635 12.885C0.0184928 12.8221 0.00858592 12.8736 0.00858592 12.9993Z" fill="url(#paint0_linear_197_2452)"/>
<defs>
<linearGradient id="paint0_linear_197_2452" x1="0" y1="13" x2="26.0574" y2="13" gradientUnits="userSpaceOnUse">
<stop stop-color="#AE8625"/>
<stop offset="0.337255" stop-color="#F7EF8A"/>
<stop offset="0.724949" stop-color="#D2AC47"/>
<stop offset="1" stop-color="#EDC967"/>
</linearGradient>
</defs>
</svg>
